<svg xmlns="http://www.w3.org/2000/svg" viewBox="0 0 276 372" width="276" height="372"><path d="M 64.801,356.583 C 64.660,356.354 64.479,343.585 64.401,328.208 L 64.257,300.250 L 68.504,299.925 C 75.620,299.379 100.405,299.442 100.754,300.006 C 100.926,300.284 101.087,313.166 101.112,328.631 C 101.151,353.156 101.062,356.769 100.413,356.895 C 99.530,357.068 97.045,355.326 89.505,349.250 C 86.434,346.775 83.624,344.583 83.261,344.378 C 82.842,344.142 81.351,345.006 79.175,346.744 C 65.927,357.328 65.460,357.648 64.801,356.583 Z M 41.250,332.949 C 33.682,330.477 27.599,326.128 22.810,319.765 C 19.205,314.975 17.349,311.165 16.062,305.911 L 15.000,301.573 L 15.007,171.661 C 15.016,27.479 14.741,38.901 18.381,31.523 C 20.990,26.235 25.877,21.449 31.664,18.514 C 35.061,16.792 36.612,16.285 38.534,16.270 L 41.016,16.250 L 41.001,136.368 C 40.986,256.107 40.989,256.489 41.993,257.493 C 43.409,258.909 46.624,258.862 47.981,257.406 C 49.166,256.134 49.036,273.601 49.022,117.181 C 49.015,34.107 49.129,16.515 49.678,16.059 C 50.158,15.661 78.939,15.504 153.190,15.494 C 249.652,15.481 256.107,15.534 257.175,16.340 C 257.802,16.812 259.031,18.239 259.907,19.509 L 261.500,21.820 L 261.500,145.614 L 261.500,269.408 L 259.350,272.079 C 256.259,275.919 255.343,277.403 254.154,280.500 C 251.399,287.676 250.611,293.764 251.461,301.312 C 252.359,309.298 254.666,315.307 258.590,319.889 C 261.262,323.009 261.979,325.017 261.550,328.179 C 261.263,330.298 260.801,331.404 259.739,332.512 L 258.313,334.000 L 183.406,334.000 L 108.500,334.000 L 108.500,326.750 L 108.500,319.500 L 175.720,319.500 C 221.433,319.500 243.043,319.335 243.260,318.983 C 243.557,318.504 240.837,311.222 240.043,310.369 C 239.848,310.160 210.228,309.935 174.219,309.869 L 108.750,309.750 L 108.605,305.370 L 108.461,300.989 L 173.605,301.007 L 238.750,301.025 L 238.896,296.680 C 238.994,293.733 238.851,292.217 238.450,291.969 C 238.124,291.768 195.428,291.686 143.569,291.787 C 38.075,291.993 46.986,292.309 47.016,288.363 C 47.027,286.808 47.379,285.854 48.349,284.750 L 49.667,283.250 L 144.685,283.124 L 239.702,282.998 L 240.781,280.018 C 241.375,278.378 242.239,276.460 242.701,275.754 C 243.163,275.049 243.406,274.253 243.241,273.986 C 243.049,273.674 208.236,273.500 146.076,273.500 C 62.719,273.500 48.819,273.602 46.405,274.231 C 38.946,276.173 33.743,281.357 30.961,289.616 C 29.746,293.224 29.630,299.089 30.705,302.574 C 32.846,309.516 37.971,315.355 44.000,317.722 C 45.237,318.208 48.612,318.870 51.500,319.193 L 56.750,319.781 L 56.889,326.890 L 57.027,334.000 L 50.639,333.964 C 45.721,333.937 43.559,333.703 41.250,332.949 Z M 99.222,253.389 C 100.457,251.625 100.217,249.243 98.683,248.036 C 97.435,247.055 96.744,247.000 85.683,247.000 L 74.000,247.000 L 73.976,239.125 C 73.940,227.498 73.374,221.510 72.231,220.675 C 70.966,219.750 68.520,219.827 67.414,220.827 C 66.568,221.593 66.500,222.750 66.500,236.377 L 66.500,251.100 L 68.200,252.800 L 69.900,254.500 L 84.172,254.500 C 98.353,254.500 98.448,254.493 99.222,253.389 Z M 242.206,252.962 L 243.500,251.423 L 243.584,239.837 C 243.712,222.092 243.710,222.061 242.722,220.969 C 241.353,219.457 238.341,219.659 237.009,221.352 C 235.996,222.640 235.949,223.201 236.009,233.227 C 236.044,239.015 236.056,244.481 236.036,245.375 L 236.000,247.000 L 224.672,247.000 L 213.344,247.000 L 211.672,248.275 C 209.538,249.903 209.398,251.954 211.317,253.464 C 212.580,254.457 213.227,254.500 226.773,254.500 L 240.911,254.500 L 242.206,252.962 Z M 162.750,223.441 C 169.789,220.069 173.000,214.925 173.000,207.019 C 173.000,200.432 171.305,196.504 166.915,192.917 C 162.144,189.018 158.073,187.748 152.908,188.546 C 148.598,189.213 146.178,190.337 142.693,193.292 C 138.880,196.526 137.303,200.041 137.083,205.799 C 136.839,212.166 138.290,216.225 142.092,219.816 C 147.912,225.312 155.914,226.716 162.750,223.441 Z M 127.086,204.173 C 127.654,203.658 128.000,202.653 128.000,201.516 C 128.000,199.506 127.018,198.364 123.017,195.724 C 119.409,193.343 114.441,189.009 110.977,185.221 C 108.278,182.268 102.821,174.587 100.696,170.750 C 100.392,170.200 99.783,169.679 99.342,169.592 C 98.082,169.344 94.000,171.352 94.000,172.220 C 94.000,173.703 97.381,180.269 99.808,183.500 C 105.441,190.997 113.085,197.997 120.500,202.447 C 125.159,205.243 125.735,205.394 127.086,204.173 Z M 187.645,203.930 C 193.950,200.724 202.840,192.914 208.339,185.750 C 210.786,182.562 216.081,173.431 215.841,172.813 C 215.720,172.503 214.486,171.639 213.097,170.893 L 210.573,169.535 L 209.046,171.274 C 208.206,172.231 207.154,173.719 206.708,174.581 C 205.421,177.070 200.552,183.485 197.526,186.679 C 194.309,190.074 189.768,193.756 186.380,195.717 C 183.135,197.596 181.000,199.687 181.000,200.989 C 181.000,202.257 183.552,205.000 184.731,205.000 C 185.176,205.000 186.487,204.518 187.645,203.930 Z M 162.500,170.384 C 171.358,168.126 179.162,159.513 181.483,149.434 C 182.752,143.922 181.511,135.903 178.465,129.931 C 175.912,124.926 169.282,119.823 162.250,117.453 C 159.552,116.543 149.811,116.553 147.497,117.468 C 142.007,119.639 139.178,121.366 136.053,124.454 C 130.483,129.957 127.994,135.867 128.007,143.554 C 128.027,154.672 132.623,162.628 142.074,167.907 C 147.709,171.054 155.950,172.053 162.500,170.384 Z M 95.513,161.317 C 99.716,160.438 102.230,159.128 104.898,156.430 C 112.742,148.493 111.237,134.627 101.831,128.174 C 98.656,125.996 96.113,125.298 91.250,125.272 C 87.809,125.253 86.831,125.456 84.250,126.722 C 80.710,128.459 77.242,131.853 75.500,135.286 C 74.392,137.471 74.250,138.374 74.250,143.250 C 74.250,148.156 74.393,149.055 75.576,151.578 C 77.953,156.648 82.489,160.125 88.250,161.294 C 92.210,162.097 91.795,162.095 95.513,161.317 Z M 222.250,161.320 C 228.057,159.769 232.641,156.050 234.848,151.099 C 236.667,147.017 236.682,140.530 234.882,136.291 C 232.780,131.342 227.989,127.221 222.307,125.475 C 219.230,124.529 213.570,125.104 210.325,126.691 C 207.265,128.189 202.743,132.717 201.222,135.807 C 199.697,138.907 199.598,146.399 201.032,150.225 C 202.962,155.376 207.882,159.682 213.592,161.219 C 216.979,162.130 219.123,162.156 222.250,161.320 Z M 213.654,116.258 C 215.973,115.289 215.978,114.633 213.696,110.230 C 210.896,104.827 206.742,99.379 201.785,94.608 C 195.789,88.839 186.398,82.500 183.847,82.500 C 183.433,82.500 182.492,83.530 181.754,84.788 C 180.447,87.019 180.436,87.101 181.332,88.103 C 181.837,88.667 184.613,90.708 187.500,92.637 C 195.552,98.016 201.766,104.912 208.706,116.169 C 209.655,117.708 210.162,117.717 213.654,116.258 Z M 102.166,114.565 C 106.474,106.650 114.285,98.370 122.649,92.851 C 125.893,90.710 128.657,88.673 128.791,88.323 C 129.091,87.543 126.621,83.015 125.704,82.663 C 123.929,81.982 111.652,90.788 106.093,96.730 C 102.919,100.123 96.891,108.744 95.309,112.154 C 94.323,114.279 94.598,114.962 96.939,116.200 C 99.561,117.587 100.718,117.225 102.166,114.565 Z M 163.203,97.522 C 166.816,95.798 170.065,92.561 171.668,89.088 C 172.556,87.163 172.747,85.821 172.749,81.492 C 172.750,76.558 172.649,76.029 171.107,72.894 C 169.189,68.996 166.045,65.958 162.000,64.097 C 159.704,63.041 158.507,62.832 154.750,62.832 C 150.919,62.832 149.804,63.034 147.250,64.193 C 138.103,68.345 134.060,80.003 138.435,89.606 C 140.249,93.588 145.605,97.702 150.750,99.066 C 151.575,99.284 154.005,99.365 156.150,99.245 C 159.148,99.078 160.778,98.680 163.203,97.522 Z M 71.528,67.485 C 73.811,66.263 74.068,64.673 73.963,52.450 C 73.908,46.136 74.014,40.819 74.199,40.634 C 74.384,40.450 79.841,40.243 86.326,40.174 C 96.556,40.066 98.240,39.938 99.046,39.209 C 100.529,37.866 100.662,36.630 99.521,34.784 C 98.129,32.531 97.462,32.451 82.106,32.686 C 70.644,32.862 69.365,32.967 68.434,33.809 C 66.436,35.618 66.357,36.292 66.440,50.973 L 66.521,65.250 L 68.018,66.625 C 69.667,68.139 70.106,68.246 71.528,67.485 Z M 241.939,66.725 L 243.454,65.450 L 243.475,51.253 C 243.487,43.418 243.283,36.495 243.021,35.804 C 242.021,33.176 241.371,33.064 226.362,32.954 L 212.473,32.851 L 211.237,34.013 C 209.386,35.752 209.772,38.308 212.073,39.539 C 212.715,39.883 217.509,40.198 224.436,40.352 C 230.659,40.490 235.837,40.686 235.943,40.787 C 236.050,40.888 236.092,46.111 236.038,52.395 C 235.931,64.726 236.139,65.996 238.471,67.264 C 240.178,68.193 240.198,68.190 241.939,66.725 Z M 51.000,309.655 C 49.126,309.308 48.023,307.586 48.019,305.000 C 48.013,301.569 48.344,301.317 52.773,301.376 C 54.893,301.405 56.835,301.635 57.088,301.888 C 57.340,302.140 57.480,304.013 57.398,306.048 L 57.250,309.750 L 54.750,309.818 C 53.375,309.855 51.688,309.782 51.000,309.655 Z M 150.104,216.910 C 146.670,215.245 143.995,210.591 144.005,206.300 C 144.011,203.647 145.990,199.422 147.817,198.163 C 153.052,194.553 159.139,194.982 162.871,199.223 C 169.496,206.748 164.836,218.059 155.145,217.975 C 153.277,217.959 151.489,217.581 150.104,216.910 Z M 88.864,154.337 C 86.055,153.463 83.543,151.191 82.203,148.312 C 78.678,140.743 83.868,132.443 92.200,132.323 C 97.200,132.250 102.002,136.585 102.797,141.889 C 103.560,146.975 99.902,152.972 95.174,154.389 C 92.720,155.124 91.360,155.113 88.864,154.337 Z M 213.750,153.717 C 211.447,152.523 209.145,150.074 207.963,147.561 C 205.919,143.212 207.367,137.793 211.394,134.718 C 214.508,132.340 216.964,131.750 220.564,132.514 C 230.277,134.575 232.140,148.825 223.277,153.262 C 220.363,154.721 216.082,154.925 213.750,153.717 Z M 152.250,92.036 C 150.012,91.496 148.807,90.731 147.068,88.750 C 144.982,86.376 144.000,83.894 144.000,81.000 C 144.000,73.267 152.303,67.787 159.147,71.004 C 160.457,71.620 162.191,72.927 163.001,73.909 C 164.552,75.791 166.000,79.382 166.000,81.347 C 166.000,85.643 162.575,90.339 158.477,91.663 C 155.725,92.552 154.654,92.616 152.250,92.036 Z" fill="#000000" fill-rule="evenodd" /></svg>