<svg xmlns="http://www.w3.org/2000/svg" viewBox="0 0 227 256" width="227" height="256"><path d="M 109.750,240.229 C 105.110,238.328 104.985,238.272 101.000,236.323 C 90.384,231.130 75.504,221.701 70.311,216.876 C 69.452,216.079 66.725,213.784 64.250,211.778 C 56.523,205.513 46.140,193.880 41.019,185.750 C 33.310,173.512 30.839,168.910 27.598,160.750 C 23.915,151.475 22.229,145.307 20.560,135.000 C 18.129,119.987 17.786,112.737 17.913,79.000 C 18.022,49.871 18.061,48.720 18.985,47.943 C 19.863,47.203 26.143,45.036 29.750,44.228 C 31.580,43.818 46.856,39.086 48.250,38.498 C 48.800,38.265 49.812,37.973 50.500,37.847 C 51.188,37.722 54.675,36.713 58.250,35.606 C 61.825,34.498 66.775,32.968 69.250,32.206 C 75.159,30.386 106.410,19.958 110.216,18.535 C 113.367,17.358 115.120,17.486 119.500,19.213 C 121.068,19.831 145.178,27.669 152.750,30.023 C 154.400,30.535 165.088,33.986 176.500,37.691 C 187.912,41.396 199.520,45.117 202.294,45.960 C 205.069,46.803 207.713,47.906 208.169,48.411 C 208.927,49.248 209.000,52.413 209.000,84.361 C 209.000,104.145 208.781,121.648 208.496,124.572 C 206.948,140.474 204.188,150.947 197.511,166.250 C 191.718,179.530 179.357,196.880 168.124,207.500 C 162.088,213.207 160.562,214.552 158.500,215.985 C 157.537,216.654 155.375,218.337 153.694,219.725 C 152.013,221.114 149.988,222.648 149.194,223.134 C 148.400,223.621 146.175,225.036 144.250,226.281 C 142.325,227.525 140.412,228.682 140.000,228.853 C 139.588,229.023 138.688,229.551 138.000,230.026 C 136.134,231.315 131.520,233.917 129.250,234.959 C 118.633,239.836 114.533,241.519 113.365,241.479 C 113.027,241.467 111.400,240.905 109.750,240.229 Z M 115.500,225.353 C 116.463,225.005 117.812,224.399 118.500,224.006 C 119.188,223.613 122.091,222.217 124.952,220.904 C 127.813,219.590 130.513,218.215 130.952,217.847 C 131.391,217.479 133.524,216.090 135.692,214.761 C 145.421,208.799 161.463,194.582 167.302,186.750 C 168.327,185.375 170.342,182.787 171.780,181.000 C 176.518,175.111 183.218,163.216 186.680,154.549 C 193.614,137.191 194.642,128.128 194.932,81.827 C 195.088,56.795 195.404,58.568 190.537,57.185 C 189.004,56.750 184.713,55.420 181.000,54.230 C 177.287,53.039 172.675,51.589 170.750,51.007 C 165.848,49.523 150.929,44.742 133.000,38.910 C 113.843,32.678 114.912,33.000 113.415,33.000 C 112.719,33.000 108.573,34.210 104.200,35.690 C 90.204,40.425 88.895,40.856 80.500,43.499 C 75.963,44.928 71.013,46.497 69.500,46.987 C 67.987,47.477 65.062,48.372 63.000,48.976 C 60.938,49.580 56.438,50.952 53.000,52.024 C 49.562,53.096 45.513,54.302 44.000,54.704 C 39.878,55.799 33.327,58.033 32.678,58.565 C 31.396,59.617 32.269,111.456 33.802,125.250 C 36.341,148.105 42.362,163.218 56.346,181.835 C 63.496,191.354 72.329,200.161 84.250,209.657 C 85.919,210.987 97.560,218.474 101.329,220.643 C 102.661,221.409 104.312,222.361 105.000,222.759 C 107.436,224.169 111.586,225.767 113.250,225.934 C 113.525,225.962 114.537,225.700 115.500,225.353 Z M 108.750,214.832 C 97.092,208.708 92.774,205.904 84.584,199.138 C 79.168,194.664 67.461,183.193 64.437,179.398 C 59.526,173.234 51.519,159.786 49.578,154.441 C 49.041,152.961 48.025,150.203 47.322,148.312 C 44.533,140.812 42.697,131.837 41.787,121.250 C 41.071,112.931 40.713,92.756 40.920,72.434 L 41.000,64.618 L 45.125,63.357 C 47.394,62.663 54.087,60.616 60.000,58.808 C 65.912,57.000 73.889,54.503 77.725,53.260 C 81.562,52.017 85.092,51.000 85.571,51.000 C 86.049,51.000 86.569,50.792 86.726,50.538 C 86.883,50.285 87.740,49.925 88.631,49.738 C 89.521,49.552 92.500,48.725 95.250,47.900 C 98.000,47.075 100.925,46.228 101.750,46.018 C 102.575,45.808 105.275,45.012 107.750,44.249 C 110.225,43.486 113.150,42.843 114.250,42.821 C 116.070,42.783 122.694,44.644 137.000,49.213 C 139.887,50.136 144.275,51.507 146.750,52.260 C 152.837,54.112 169.986,59.683 176.750,62.005 C 179.775,63.043 183.110,64.164 184.160,64.497 C 185.211,64.829 186.190,65.414 186.338,65.798 C 186.924,67.325 185.518,121.808 184.740,127.749 C 183.239,139.198 180.735,147.759 176.002,157.623 C 172.510,164.902 170.283,168.635 165.029,176.020 C 158.285,185.499 143.468,199.208 130.896,207.601 C 128.160,209.427 113.321,217.128 112.849,216.966 C 112.794,216.948 110.950,215.987 108.750,214.832 Z M 78.157,165.930 C 81.906,164.656 85.404,163.080 87.250,161.835 C 90.515,159.632 131.245,119.015 137.119,112.105 C 141.637,106.788 142.318,106.404 143.841,108.308 C 144.476,109.101 145.014,110.088 145.038,110.500 C 145.321,115.426 145.628,115.626 149.747,113.576 C 152.555,112.179 152.999,111.772 152.995,110.604 C 152.988,108.726 151.067,104.832 148.318,101.124 C 147.043,99.404 146.000,97.825 146.000,97.615 C 146.000,97.405 148.419,94.827 151.375,91.886 C 156.751,86.539 159.112,85.000 161.939,85.000 C 165.146,85.000 167.397,79.790 165.718,76.254 C 163.989,72.609 160.152,70.882 156.166,71.955 C 154.004,72.537 153.807,72.833 152.472,77.500 C 151.953,79.317 150.850,80.712 146.741,84.750 C 143.943,87.500 140.969,90.141 140.134,90.620 L 138.614,91.489 L 135.432,88.935 C 133.682,87.531 131.350,85.941 130.250,85.403 L 128.250,84.424 L 125.375,86.319 C 123.794,87.361 122.500,88.458 122.500,88.756 C 122.500,89.055 123.413,89.850 124.529,90.524 C 128.822,93.117 129.748,93.809 129.887,94.533 C 129.970,94.963 122.458,102.829 112.238,113.016 C 95.013,130.184 80.156,145.730 77.425,149.445 C 74.902,152.877 72.947,157.269 71.727,162.250 C 71.053,165.000 70.501,167.419 70.501,167.625 C 70.499,168.342 72.099,167.988 78.157,165.930 Z M 156.000,167.125 C 155.998,165.846 154.322,159.083 153.461,156.878 C 150.987,150.552 150.014,149.225 140.869,139.715 C 135.864,134.509 131.610,130.180 131.418,130.095 C 131.225,130.009 129.196,131.723 126.909,133.903 C 124.621,136.084 121.906,138.596 120.875,139.486 C 119.844,140.375 119.000,141.415 119.000,141.796 C 119.000,142.178 123.169,146.598 128.264,151.620 C 137.316,160.541 137.651,160.810 142.889,163.370 C 145.838,164.810 148.700,166.009 149.250,166.033 C 149.800,166.057 151.037,166.379 152.000,166.750 C 153.958,167.504 156.000,167.696 156.000,167.125 Z M 101.403,112.327 C 104.481,109.207 107.000,106.484 107.000,106.277 C 107.000,106.070 104.750,103.481 102.000,100.524 C 99.250,97.567 97.000,94.900 97.000,94.598 C 97.000,93.914 101.006,91.120 102.966,90.437 C 105.340,89.609 105.234,88.663 102.464,85.965 C 101.072,84.609 99.733,83.500 99.488,83.500 C 99.243,83.500 96.548,85.075 93.500,87.000 C 90.452,88.925 87.521,90.500 86.988,90.500 C 85.825,90.500 77.205,82.821 75.328,80.112 C 74.585,79.041 74.000,77.510 74.000,76.639 C 74.000,74.279 73.553,73.547 71.458,72.479 C 65.675,69.528 60.255,73.938 61.278,80.761 C 61.672,83.388 61.880,83.573 65.750,84.742 C 68.501,85.572 69.216,86.127 74.375,91.435 C 77.469,94.618 80.000,97.502 80.000,97.843 C 80.000,98.541 77.714,102.848 76.731,104.000 C 75.674,105.239 73.587,110.146 73.839,110.801 C 74.126,111.550 79.347,115.500 80.050,115.500 C 80.330,115.500 80.435,115.299 80.282,115.052 C 80.130,114.806 80.918,112.781 82.034,110.552 C 84.030,106.564 85.193,105.598 85.859,107.375 C 86.209,108.306 95.015,118.000 95.512,118.000 C 95.673,118.000 98.324,115.447 101.403,112.327 Z" fill="#000000" fill-rule="evenodd" /></svg>