<svg xmlns="http://www.w3.org/2000/svg" viewBox="0 0 371 289" width="371" height="289"><path d="M 154.000,277.002 C 127.404,275.856 98.826,272.732 83.250,269.268 C 69.644,266.243 63.286,264.463 58.250,262.271 C 51.062,259.142 48.672,257.673 45.200,254.250 C 40.947,250.055 40.364,248.343 42.003,244.855 C 43.223,242.260 44.587,240.917 49.021,237.943 C 58.838,231.360 79.015,225.675 103.750,222.523 C 106.225,222.207 109.825,221.745 111.750,221.495 C 113.675,221.245 117.838,220.797 121.000,220.500 C 124.162,220.203 128.887,219.752 131.500,219.498 C 153.687,217.343 187.422,216.434 205.686,217.500 C 244.958,219.792 261.209,221.738 286.500,227.177 C 288.288,227.562 291.193,228.354 292.958,228.938 C 294.722,229.522 296.548,230.000 297.016,230.000 C 297.484,230.000 298.965,230.421 300.308,230.935 C 301.651,231.450 304.100,232.377 305.750,232.996 C 318.424,237.747 324.323,243.238 323.329,249.359 C 322.317,255.596 311.990,261.879 296.000,265.986 C 283.463,269.206 277.434,270.362 262.250,272.454 C 246.771,274.587 244.295,274.826 220.147,276.515 C 210.467,277.192 166.006,277.520 154.000,277.002 Z M 220.500,264.035 C 230.620,263.478 244.190,262.327 250.250,261.513 C 252.175,261.254 255.887,260.784 258.500,260.468 C 261.113,260.153 265.725,259.458 268.750,258.925 C 271.775,258.392 276.050,257.645 278.250,257.265 C 280.450,256.886 283.262,256.318 284.500,256.005 C 285.738,255.691 287.538,255.257 288.500,255.040 C 292.652,254.104 299.504,251.747 302.625,250.181 C 306.824,248.074 307.064,247.019 303.625,245.780 C 302.319,245.309 299.562,244.294 297.500,243.524 C 293.339,241.972 287.689,240.394 282.000,239.197 C 279.938,238.763 276.788,238.100 275.000,237.723 C 268.024,236.252 254.108,234.231 244.000,233.220 C 207.811,229.604 166.598,229.123 136.500,231.967 C 130.863,232.500 123.213,233.187 119.500,233.494 C 115.787,233.802 111.513,234.243 110.000,234.476 C 108.487,234.709 105.225,235.167 102.750,235.496 C 87.647,237.498 66.275,242.618 60.603,245.591 C 58.560,246.662 59.403,248.044 63.282,249.984 C 67.413,252.050 68.360,252.378 76.000,254.401 C 84.410,256.628 90.139,257.894 95.500,258.711 C 98.112,259.109 102.275,259.766 104.750,260.171 C 107.225,260.576 111.612,261.168 114.500,261.485 C 117.388,261.803 121.438,262.266 123.500,262.513 C 128.035,263.056 140.366,263.937 151.250,264.495 C 161.699,265.031 208.013,264.723 220.500,264.035 Z M 40.291,233.375 C 40.166,232.756 39.950,230.320 39.812,227.961 C 39.445,221.696 37.810,218.195 31.775,210.750 L 28.938,207.250 L 29.144,202.750 C 29.294,199.452 29.719,197.248 30.734,194.500 C 32.894,188.653 32.904,185.726 30.801,175.750 C 30.395,173.825 29.583,169.662 28.996,166.500 C 28.410,163.338 27.355,157.938 26.651,154.500 C 25.048,146.661 24.947,146.127 23.079,135.500 C 19.905,117.451 16.956,101.716 15.488,95.000 C 14.917,92.388 14.119,88.338 13.714,86.000 C 13.309,83.662 12.758,80.664 12.489,79.337 C 11.868,76.274 11.861,73.855 12.473,74.234 C 13.024,74.574 13.709,75.559 23.627,90.250 C 37.295,110.499 43.961,120.680 48.180,127.750 C 49.493,129.950 50.819,132.123 51.127,132.580 C 51.549,133.203 51.459,135.067 50.768,140.080 C 49.981,145.784 49.936,147.256 50.460,150.248 C 51.827,158.056 53.787,161.920 58.960,167.000 C 63.236,171.200 68.113,173.726 71.777,173.641 C 79.085,173.469 82.930,170.170 86.510,161.000 C 87.997,157.190 88.191,156.103 88.386,150.500 C 88.507,147.038 88.359,142.932 88.054,141.294 C 87.253,136.987 84.626,131.686 81.625,128.319 C 79.040,125.419 79.000,125.325 79.000,122.184 C 79.000,120.429 79.350,116.689 79.779,113.872 C 80.207,111.055 80.756,107.175 80.998,105.250 C 81.240,103.325 81.768,99.500 82.171,96.750 C 82.574,94.000 83.151,89.838 83.454,87.500 C 83.756,85.162 84.429,80.100 84.950,76.250 C 86.067,67.984 86.982,60.041 87.138,57.254 C 87.217,55.851 87.496,55.212 88.078,55.101 C 88.685,54.987 89.611,56.327 91.530,60.097 C 92.973,62.931 97.460,71.775 101.500,79.750 C 105.540,87.725 109.900,96.162 111.188,98.500 C 112.476,100.838 114.892,105.428 116.557,108.700 C 119.366,114.224 119.547,114.780 119.078,116.450 C 118.800,117.440 117.994,120.273 117.286,122.746 C 115.351,129.512 115.781,139.051 118.186,142.722 C 118.634,143.406 119.000,144.248 119.000,144.594 C 119.000,145.806 124.549,153.464 126.889,155.483 C 134.032,161.645 142.189,161.797 148.958,155.895 C 153.354,152.063 159.799,142.058 161.114,137.025 C 162.220,132.794 162.964,128.589 162.976,126.500 C 163.005,121.470 160.129,115.223 154.906,108.968 C 153.858,107.713 153.000,106.298 153.000,105.825 C 153.000,105.352 154.099,101.654 155.441,97.607 C 156.784,93.561 159.045,86.537 160.466,82.000 C 163.079,73.658 166.970,61.740 174.668,38.500 C 176.991,31.488 179.171,24.738 179.513,23.500 C 180.760,18.985 181.903,16.250 182.544,16.250 C 183.311,16.250 184.883,20.279 187.519,29.000 C 188.558,32.438 191.081,40.312 193.127,46.500 C 195.172,52.688 198.016,61.462 199.445,66.000 C 200.875,70.537 204.284,81.016 207.022,89.285 C 209.760,97.554 212.000,104.684 212.000,105.129 C 212.000,105.574 210.326,108.421 208.280,111.456 C 206.234,114.490 204.232,117.711 203.832,118.612 C 201.847,123.083 201.474,131.810 203.110,135.500 C 203.537,136.463 204.371,138.503 204.964,140.034 C 206.300,143.484 210.221,150.132 212.717,153.177 C 216.538,157.840 223.114,160.900 227.864,160.226 C 241.210,158.329 251.886,140.181 248.291,125.500 C 247.921,123.987 247.123,121.343 246.519,119.624 C 245.172,115.789 245.340,114.852 248.509,108.511 C 253.830,97.862 265.732,74.493 267.740,70.750 C 272.332,62.192 275.000,56.867 275.000,56.258 C 275.000,55.908 275.317,55.359 275.705,55.037 C 276.801,54.128 277.139,55.123 277.813,61.244 C 278.675,69.066 282.551,97.866 284.005,107.250 C 284.218,108.625 284.877,112.874 285.468,116.692 L 286.544,123.635 L 285.262,125.442 C 284.557,126.437 283.079,128.375 281.979,129.750 C 275.757,137.525 274.380,148.100 277.976,160.500 C 279.329,165.165 280.803,167.730 283.629,170.335 C 286.705,173.170 290.195,174.278 293.642,173.513 C 304.102,171.192 312.496,161.734 313.999,150.579 C 314.584,146.229 314.375,142.897 313.184,137.626 C 312.516,134.666 312.535,134.391 313.552,132.376 C 315.408,128.703 321.697,118.528 326.611,111.250 C 329.211,107.400 335.113,98.625 339.727,91.750 C 344.341,84.875 348.897,78.181 349.851,76.875 C 351.704,74.337 353.386,73.617 352.773,75.625 C 352.351,77.004 351.328,82.468 350.548,87.500 C 350.228,89.562 349.766,91.925 349.519,92.750 C 349.273,93.575 348.814,96.050 348.500,98.250 C 348.185,100.450 347.727,103.037 347.481,104.000 C 347.235,104.963 346.561,108.338 345.984,111.500 C 344.227,121.131 343.937,122.673 343.494,124.750 C 343.259,125.850 342.352,130.688 341.478,135.500 C 339.911,144.131 339.389,146.766 335.436,166.000 C 331.201,186.609 331.186,186.819 333.491,192.500 C 335.072,196.397 335.878,199.322 336.264,202.555 C 336.671,205.972 336.143,207.145 332.071,211.880 C 330.477,213.734 328.341,216.504 327.325,218.036 C 325.589,220.653 325.446,221.170 324.979,226.536 C 324.404,233.131 324.198,234.000 323.211,234.000 C 322.814,234.000 320.729,232.897 318.578,231.549 C 316.428,230.201 313.111,228.582 311.209,227.950 C 309.307,227.319 307.413,226.438 307.000,225.993 C 306.587,225.548 305.012,224.902 303.500,224.557 C 301.988,224.212 300.300,223.737 299.750,223.500 C 297.481,222.523 287.960,219.988 284.000,219.306 C 277.776,218.234 269.614,216.655 266.750,215.969 C 265.375,215.640 262.562,215.192 260.500,214.973 C 258.438,214.755 254.950,214.353 252.750,214.079 C 246.115,213.255 233.580,212.075 228.000,211.750 C 225.113,211.582 221.625,211.341 220.250,211.215 C 215.939,210.819 186.990,210.130 181.750,210.298 C 179.000,210.386 169.550,210.592 160.750,210.755 C 151.950,210.918 144.188,211.125 143.500,211.214 C 142.812,211.304 139.887,211.531 137.000,211.720 C 134.113,211.909 128.488,212.400 124.500,212.813 C 120.513,213.225 115.112,213.777 112.500,214.041 C 104.036,214.894 89.031,217.138 85.750,218.041 C 84.650,218.344 82.175,218.916 80.250,219.314 C 78.325,219.711 75.625,220.387 74.250,220.816 C 72.875,221.245 70.513,221.885 69.000,222.239 C 61.886,223.902 54.247,227.171 44.577,232.689 C 42.832,233.685 41.205,234.500 40.961,234.500 C 40.718,234.500 40.416,233.994 40.291,233.375 Z M 48.408,211.125 C 48.944,210.369 49.782,208.287 50.270,206.500 C 50.757,204.713 51.315,203.025 51.509,202.750 C 52.841,200.864 52.273,196.650 50.417,194.640 C 48.807,192.896 42.659,188.000 42.080,188.000 C 41.820,188.000 41.484,188.320 41.334,188.710 C 40.894,189.859 43.044,202.933 44.548,208.250 C 45.836,212.803 46.739,213.476 48.408,211.125 Z M 319.852,207.497 C 320.480,205.436 320.996,203.272 320.997,202.688 C 320.999,202.104 321.447,199.854 321.992,197.688 C 322.538,195.522 322.988,192.456 322.992,190.875 C 323.003,187.030 322.192,187.081 317.822,191.200 C 314.258,194.560 312.500,197.197 312.500,199.183 C 312.500,201.283 315.268,209.068 316.664,210.896 C 317.722,212.281 318.716,211.220 319.852,207.497 Z M 186.412,192.875 C 189.608,188.105 192.042,184.243 195.569,178.348 C 197.191,175.637 197.224,175.786 193.924,170.902 C 192.866,169.336 192.000,167.905 192.000,167.721 C 192.000,167.537 190.384,164.994 188.409,162.068 C 186.434,159.143 184.353,156.028 183.784,155.146 C 183.215,154.264 182.595,153.533 182.406,153.521 C 181.712,153.479 168.000,174.768 168.000,175.887 C 168.000,176.357 168.748,177.868 169.661,179.246 C 170.575,180.623 172.992,184.338 175.033,187.500 C 179.987,195.177 182.004,198.000 182.536,198.000 C 182.779,198.000 184.523,195.694 186.412,192.875 Z M 111.250,194.948 C 117.294,192.107 119.209,184.966 115.299,179.852 C 113.272,177.202 111.266,176.079 108.500,176.048 C 102.080,175.975 96.705,182.312 98.521,187.815 C 100.181,192.843 103.141,195.225 108.630,195.950 C 108.840,195.977 110.018,195.526 111.250,194.948 Z M 260.356,194.449 C 261.550,193.871 263.140,192.594 263.889,191.611 C 265.077,190.051 265.250,189.370 265.250,186.248 C 265.250,183.082 265.086,182.456 263.817,180.793 C 260.230,176.091 254.267,175.237 250.012,178.816 C 247.933,180.566 247.000,182.743 247.000,185.847 C 247.000,193.313 253.738,197.653 260.356,194.449 Z M 187.426,106.061 L 191.619,98.382 L 189.621,92.566 C 188.522,89.367 186.906,84.838 186.030,82.500 C 185.154,80.162 184.058,77.125 183.594,75.750 C 182.671,73.017 181.987,72.754 181.313,74.875 C 181.073,75.631 179.423,79.963 177.646,84.500 C 172.769,96.951 172.797,96.849 173.500,99.218 C 173.832,100.336 174.272,101.475 174.479,101.750 C 174.686,102.025 175.699,103.825 176.731,105.750 C 179.921,111.700 181.573,114.059 182.434,113.893 C 182.878,113.808 185.098,110.324 187.426,106.061 Z M 69.978,167.223 C 69.623,166.796 67.852,165.578 66.042,164.516 C 62.994,162.728 59.989,159.371 60.006,157.775 C 60.013,157.129 70.183,152.881 76.107,151.050 C 78.503,150.309 80.622,149.545 80.815,149.352 C 81.008,149.158 81.493,149.000 81.891,149.000 C 83.364,149.000 81.377,157.991 78.932,162.390 C 77.494,164.978 76.540,165.958 74.395,167.053 C 72.142,168.203 70.833,168.254 69.978,167.223 Z M 288.916,167.117 C 286.608,166.101 284.436,161.504 283.547,155.750 C 283.207,153.550 282.828,151.244 282.705,150.625 C 282.401,149.097 282.995,149.159 289.374,151.325 C 306.066,156.993 305.595,156.696 303.001,159.924 C 302.090,161.058 299.996,163.158 298.349,164.591 C 295.596,166.985 295.125,167.209 292.551,167.340 C 291.011,167.419 289.375,167.318 288.916,167.117 Z M 135.250,153.291 C 133.086,152.324 129.282,148.470 126.986,144.917 C 124.465,141.017 124.448,140.184 126.875,139.553 C 130.417,138.633 143.294,137.002 147.057,136.997 C 148.263,136.996 150.121,136.753 151.185,136.457 C 152.270,136.156 153.309,136.109 153.551,136.351 C 154.554,137.354 148.986,146.922 145.422,150.321 C 141.663,153.904 138.615,154.794 135.250,153.291 Z M 222.132,152.452 C 219.785,151.083 216.000,147.386 216.000,146.461 C 216.000,146.264 215.150,144.673 214.112,142.926 C 211.420,138.397 210.786,137.048 211.168,136.666 C 211.765,136.069 231.329,138.271 236.926,139.565 C 238.398,139.906 239.713,140.472 239.848,140.825 C 240.198,141.738 236.855,147.043 234.219,149.755 C 231.758,152.288 228.568,153.978 226.250,153.978 C 225.425,153.978 223.572,153.291 222.132,152.452 Z" fill="#000000" fill-rule="evenodd" /></svg>