<svg xmlns="http://www.w3.org/2000/svg" viewBox="0 0 134 135" width="134" height="135"><path d="M 66.810,122.096 C 66.650,121.838 65.364,115.917 63.952,108.938 C 62.540,101.960 61.269,95.725 61.126,95.084 C 60.984,94.443 60.344,93.680 59.704,93.388 C 58.113,92.663 57.147,93.361 49.678,100.630 C 46.280,103.936 43.500,106.386 43.500,106.074 C 43.500,105.762 44.309,103.424 45.298,100.878 C 46.286,98.333 47.546,95.013 48.096,93.500 C 48.647,91.987 49.334,90.252 49.623,89.644 C 50.056,88.733 49.911,88.228 48.799,86.769 C 48.056,85.796 47.330,85.000 47.184,85.000 C 47.038,85.000 42.859,86.359 37.897,88.021 C 32.935,89.682 28.763,90.930 28.627,90.793 C 28.490,90.657 31.455,87.574 35.215,83.943 C 40.956,78.398 42.027,77.134 41.901,76.046 C 41.691,74.243 42.062,74.349 17.125,68.945 C 14.306,68.334 12.000,67.691 12.000,67.515 C 12.000,67.339 13.744,66.916 15.875,66.574 C 20.218,65.879 21.522,65.634 32.500,63.453 C 41.504,61.664 42.996,60.923 41.911,58.777 C 41.626,58.212 38.446,54.777 34.845,51.142 C 31.245,47.508 28.459,44.375 28.654,44.179 C 28.850,43.984 30.639,44.514 32.630,45.358 C 37.088,47.248 40.927,48.694 44.391,49.790 C 46.914,50.588 47.078,50.584 48.062,49.693 C 48.629,49.181 49.284,48.404 49.517,47.968 C 49.998,47.069 48.013,40.898 44.952,33.777 C 43.894,31.317 43.126,29.207 43.245,29.089 C 43.364,28.970 46.652,31.935 50.552,35.678 C 56.818,41.691 57.796,42.447 58.947,42.177 C 59.664,42.009 60.404,41.731 60.593,41.560 C 60.782,41.390 61.417,38.775 62.004,35.750 C 62.591,32.725 63.644,27.438 64.344,24.000 C 65.044,20.562 65.811,16.779 66.049,15.592 C 66.810,11.799 67.717,11.384 68.161,14.625 C 68.321,15.794 69.573,22.255 70.944,28.984 C 73.355,40.815 73.931,42.500 75.570,42.500 C 76.304,42.500 81.801,37.594 85.907,33.272 C 88.194,30.866 90.169,29.002 90.296,29.129 C 90.424,29.257 90.273,30.011 89.962,30.806 C 89.650,31.600 88.191,35.677 86.718,39.867 L 84.041,47.483 L 85.511,49.093 L 86.981,50.703 L 90.116,49.636 C 96.224,47.559 102.219,45.422 103.849,44.741 C 104.757,44.362 105.500,44.226 105.500,44.441 C 105.500,44.655 102.452,47.850 98.728,51.540 C 92.703,57.510 91.972,58.415 92.103,59.750 C 92.279,61.541 93.254,61.940 101.058,63.406 C 103.914,63.942 109.625,65.013 113.750,65.785 C 117.875,66.557 121.344,67.258 121.458,67.344 C 122.094,67.820 119.726,68.417 106.990,70.993 C 99.279,72.553 92.777,74.037 92.541,74.290 C 92.305,74.543 91.971,75.220 91.798,75.794 C 91.544,76.640 92.416,77.747 96.367,81.599 C 99.053,84.217 102.206,87.205 103.375,88.238 C 104.544,89.271 105.500,90.341 105.500,90.616 C 105.500,91.201 105.313,91.152 98.750,88.852 C 96.000,87.889 92.194,86.613 90.293,86.017 L 86.836,84.934 L 85.381,86.389 L 83.926,87.843 L 86.772,96.047 C 90.021,105.410 90.316,106.500 89.600,106.500 C 89.316,106.500 89.008,106.302 88.917,106.060 C 88.558,105.115 82.291,98.439 79.284,95.799 C 76.300,93.179 76.021,93.045 74.597,93.541 C 72.997,94.099 72.889,94.377 71.513,101.500 C 69.498,111.933 67.395,122.272 67.260,122.406 C 67.172,122.495 66.969,122.355 66.810,122.096 Z M 73.250,83.730 C 75.757,82.601 78.799,80.132 78.298,79.632 C 78.151,79.485 77.419,79.766 76.671,80.256 C 75.853,80.792 73.975,81.243 71.959,81.387 C 60.980,82.172 53.317,72.705 56.990,62.894 C 58.309,59.371 60.328,57.026 63.572,55.251 C 67.116,53.313 72.521,53.151 75.962,54.881 C 77.178,55.493 78.250,55.916 78.344,55.822 C 78.649,55.517 75.810,52.928 74.334,52.164 C 68.477,49.135 62.554,49.436 56.925,53.048 C 51.436,56.570 48.110,64.474 49.476,70.750 C 51.474,79.931 59.443,86.028 68.250,85.115 C 69.625,84.973 71.875,84.349 73.250,83.730 Z" fill="#000000" fill-rule="evenodd" /></svg>