<svg xmlns="http://www.w3.org/2000/svg" viewBox="0 0 496 497" width="496" height="497"><path d="M 238.500,481.659 C 223.033,480.955 208.508,478.916 194.428,475.471 C 189.930,474.370 185.238,473.140 184.000,472.736 C 176.650,470.337 173.919,469.500 173.440,469.500 C 173.144,469.500 172.192,469.194 171.326,468.820 C 170.459,468.446 166.825,466.943 163.250,465.479 C 159.675,464.016 153.199,461.060 148.859,458.910 C 144.519,456.759 140.794,455.000 140.581,455.000 C 140.368,455.000 139.419,454.424 138.472,453.721 C 137.525,453.017 135.963,452.069 135.000,451.613 C 134.037,451.157 131.490,449.707 129.338,448.392 C 127.187,447.076 125.246,446.000 125.025,446.000 C 124.803,446.000 124.314,445.627 123.936,445.171 C 123.559,444.715 120.438,442.487 117.000,440.220 C 109.859,435.510 106.675,433.029 98.250,425.611 C 84.522,413.523 69.496,396.867 60.260,383.500 C 58.645,381.163 56.801,378.554 56.162,377.703 C 55.523,376.852 55.000,375.947 55.000,375.692 C 55.000,375.437 54.362,374.445 53.583,373.489 C 52.804,372.533 51.311,370.175 50.266,368.250 C 49.221,366.325 47.978,364.188 47.504,363.500 C 46.518,362.070 40.819,350.348 38.752,345.500 C 37.990,343.712 36.695,340.900 35.874,339.250 C 30.270,327.994 22.808,302.053 20.773,286.750 C 20.590,285.375 20.121,281.895 19.731,279.018 C 17.250,260.717 17.031,243.945 19.046,226.500 C 20.623,212.848 21.287,208.863 24.171,195.750 C 25.618,189.171 28.403,179.254 29.997,175.000 C 30.873,172.662 31.764,170.188 31.977,169.500 C 33.020,166.141 39.823,150.901 44.811,140.750 C 48.677,132.881 56.863,119.570 61.874,113.000 C 77.058,93.095 93.691,76.058 110.333,63.364 C 117.856,57.627 122.739,54.359 130.000,50.204 C 131.787,49.181 133.982,47.805 134.876,47.145 C 135.771,46.486 137.233,45.703 138.126,45.404 C 139.019,45.106 140.200,44.475 140.750,44.003 C 141.756,43.139 155.109,36.503 155.852,36.497 C 156.071,36.495 156.867,36.172 157.621,35.779 C 158.375,35.386 162.087,33.912 165.871,32.503 C 169.654,31.095 174.482,29.281 176.600,28.472 C 178.717,27.662 180.788,27.000 181.201,27.000 C 181.615,27.000 182.470,26.805 183.101,26.567 C 195.749,21.795 222.370,17.549 244.750,16.735 C 256.293,16.314 272.033,17.501 288.000,19.995 C 289.788,20.274 292.908,20.742 294.934,21.036 C 296.960,21.329 299.210,21.810 299.934,22.103 C 300.658,22.397 302.150,22.808 303.250,23.016 C 309.335,24.169 311.305,24.638 311.806,25.050 C 312.111,25.301 314.474,26.156 317.056,26.948 C 323.439,28.908 325.861,29.775 332.063,32.320 C 334.985,33.519 338.360,34.847 339.563,35.271 C 343.915,36.803 355.161,42.248 356.948,43.688 C 357.332,43.997 358.735,44.812 360.066,45.500 C 361.397,46.188 364.777,48.100 367.576,49.750 C 370.375,51.400 373.246,53.091 373.957,53.507 C 375.693,54.523 381.884,58.696 383.750,60.107 C 384.575,60.731 386.895,62.481 388.906,63.996 C 396.283,69.554 395.386,68.812 403.556,76.120 C 411.504,83.230 426.232,98.855 428.923,103.033 C 429.378,103.739 430.592,105.314 431.621,106.533 C 435.999,111.722 442.411,120.836 445.492,126.250 C 446.431,127.900 448.137,130.713 449.283,132.500 C 451.801,136.428 460.013,152.977 461.689,157.500 C 462.947,160.896 465.650,167.677 466.772,170.250 C 468.837,174.987 473.406,190.780 475.197,199.373 C 479.981,222.325 481.591,242.936 480.204,263.500 C 478.786,284.541 474.876,305.498 469.260,322.163 C 465.718,332.675 464.940,334.818 463.736,337.389 C 463.056,338.840 462.500,340.154 462.500,340.308 C 462.500,340.462 461.803,342.087 460.951,343.919 C 460.099,345.751 458.961,348.358 458.424,349.712 C 457.886,351.066 456.718,353.428 455.828,354.962 C 454.939,356.495 453.228,359.663 452.026,362.000 C 450.825,364.337 449.012,367.488 447.998,369.000 C 446.984,370.512 444.744,374.000 443.019,376.750 C 440.174,381.287 437.217,385.359 428.651,396.536 C 423.654,403.056 412.202,415.253 404.703,422.042 C 400.742,425.629 396.882,429.131 396.125,429.825 C 393.491,432.242 382.160,440.555 377.000,443.856 C 376.312,444.296 374.880,445.240 373.816,445.953 C 369.598,448.781 366.615,450.555 363.717,451.958 C 362.048,452.766 360.389,453.781 360.030,454.213 C 359.671,454.646 359.061,455.000 358.674,455.000 C 358.287,455.000 355.559,456.225 352.610,457.722 C 346.617,460.766 338.684,464.500 338.211,464.500 C 337.924,464.500 337.275,464.766 332.500,466.845 C 329.770,468.034 321.965,470.586 319.750,471.014 C 318.650,471.226 316.512,471.858 315.000,472.418 C 311.452,473.732 295.137,477.671 289.000,478.696 C 273.156,481.341 254.965,482.409 238.500,481.659 Z M 264.500,464.227 C 269.038,463.819 273.875,463.292 275.250,463.058 C 276.625,462.823 280.113,462.249 283.000,461.783 C 285.887,461.317 289.038,460.739 290.000,460.498 C 290.962,460.257 293.212,459.792 295.000,459.463 C 299.425,458.651 309.486,455.917 316.750,453.553 C 328.077,449.867 344.942,442.639 346.436,440.831 C 346.814,440.374 347.414,440.000 347.770,440.000 C 348.746,440.000 359.636,434.256 362.956,431.990 C 364.560,430.895 366.022,430.000 366.207,430.000 C 366.392,430.000 367.797,429.044 369.331,427.875 C 370.864,426.706 373.069,425.075 374.230,424.250 C 375.391,423.425 377.108,422.116 378.046,421.340 C 378.983,420.565 381.790,418.315 384.283,416.340 C 394.223,408.467 398.615,404.278 407.704,394.000 C 418.318,381.998 424.574,373.534 432.279,360.750 C 436.405,353.905 445.420,336.150 446.497,332.750 C 446.845,331.650 447.290,330.525 447.485,330.250 C 447.680,329.975 448.536,327.950 449.388,325.750 C 458.730,301.615 463.551,272.688 462.844,245.000 C 462.370,226.421 460.853,214.867 456.640,197.750 C 455.964,195.000 455.229,191.963 455.008,191.000 C 454.167,187.344 450.343,175.871 448.759,172.250 C 448.398,171.425 447.256,168.725 446.222,166.250 C 444.070,161.098 438.279,149.183 435.773,144.750 C 434.841,143.100 433.578,140.850 432.968,139.750 C 431.348,136.829 422.355,123.458 419.224,119.314 C 414.930,113.632 411.912,109.770 411.555,109.500 C 411.373,109.362 410.464,108.237 409.534,107.000 C 406.911,103.509 390.088,87.111 386.898,84.938 C 385.330,83.869 383.867,82.714 383.648,82.372 C 383.087,81.495 379.547,78.808 377.686,77.846 C 376.825,77.401 375.990,76.695 375.830,76.277 C 375.565,75.587 372.242,73.204 366.066,69.277 C 364.792,68.467 362.195,66.779 360.295,65.527 C 357.065,63.399 351.778,60.549 343.673,56.569 C 341.791,55.644 339.462,54.488 338.500,54.001 C 337.538,53.514 336.188,52.950 335.500,52.749 C 334.812,52.549 332.689,51.623 330.780,50.692 C 328.872,49.761 326.981,49.000 326.578,49.000 C 326.176,49.000 324.407,48.320 322.647,47.488 C 320.886,46.656 318.165,45.656 316.598,45.265 C 315.032,44.874 312.175,43.979 310.250,43.277 C 308.325,42.574 305.288,41.664 303.500,41.254 C 301.712,40.844 298.225,39.970 295.750,39.313 C 291.328,38.139 285.902,37.202 274.500,35.643 C 265.917,34.469 235.902,34.464 225.750,35.635 C 214.231,36.963 198.579,39.832 195.416,41.195 C 194.500,41.590 192.400,42.201 190.750,42.553 C 189.100,42.905 187.188,43.580 186.500,44.052 C 185.812,44.524 184.176,45.058 182.864,45.237 C 181.552,45.417 179.190,46.137 177.614,46.838 C 176.039,47.538 173.850,48.405 172.750,48.765 C 170.172,49.607 164.608,51.855 163.000,52.704 C 162.312,53.067 161.089,53.522 160.280,53.715 C 159.472,53.908 158.200,54.502 157.453,55.033 C 156.707,55.565 155.652,56.000 155.109,56.000 C 154.566,56.000 153.839,56.342 153.492,56.759 C 153.146,57.177 152.049,57.887 151.056,58.338 C 145.575,60.824 123.613,74.607 122.630,76.178 C 122.421,76.512 120.675,77.896 118.750,79.254 C 116.825,80.612 114.163,82.780 112.834,84.071 C 111.506,85.363 109.491,87.057 108.358,87.835 C 102.648,91.755 83.812,112.128 79.708,118.822 C 79.135,119.757 78.104,121.136 77.417,121.886 C 74.621,124.940 68.811,133.896 65.284,140.588 C 64.316,142.424 63.294,144.068 63.011,144.243 C 62.465,144.580 60.500,148.625 60.500,149.411 C 60.500,149.668 60.134,150.181 59.687,150.553 C 58.756,151.325 55.856,157.101 53.814,162.250 C 53.050,164.175 52.125,166.217 51.758,166.789 C 51.390,167.360 50.744,168.993 50.321,170.418 C 49.897,171.843 49.219,173.626 48.814,174.379 C 45.799,179.982 39.769,204.090 37.278,220.500 C 33.150,247.692 35.037,277.595 42.577,304.500 C 46.466,318.376 47.485,321.585 49.480,326.250 C 49.716,326.800 50.512,328.825 51.251,330.750 C 52.678,334.469 55.447,340.601 57.009,343.500 C 57.527,344.462 58.747,346.825 59.719,348.750 C 62.501,354.258 63.464,355.975 66.174,360.250 C 70.783,367.520 75.879,375.222 77.325,377.101 C 78.109,378.119 79.425,379.903 80.250,381.066 C 82.204,383.820 90.785,394.170 93.294,396.799 C 94.370,397.926 95.612,399.276 96.053,399.799 C 97.156,401.104 110.227,412.955 113.000,415.165 C 125.966,425.493 137.332,433.332 145.000,437.235 C 154.937,442.293 164.704,447.000 165.263,447.000 C 165.462,447.000 166.891,447.554 168.437,448.230 C 171.683,449.650 179.438,452.585 182.000,453.364 C 182.963,453.656 186.000,454.583 188.750,455.422 C 195.588,457.511 198.849,458.416 201.500,458.962 C 202.738,459.217 204.988,459.761 206.500,460.172 C 208.012,460.582 210.938,461.077 213.000,461.271 C 215.062,461.465 217.312,461.838 218.000,462.101 C 220.556,463.078 240.566,464.823 250.250,464.914 C 253.550,464.945 259.962,464.636 264.500,464.227 Z M 238.250,455.191 C 229.796,454.643 218.875,453.313 211.500,451.933 C 201.777,450.115 199.526,449.558 192.367,447.198 C 189.406,446.222 186.193,445.350 185.226,445.260 C 184.260,445.170 183.195,444.882 182.859,444.620 C 182.524,444.358 180.562,443.520 178.500,442.757 C 174.334,441.217 172.898,440.611 167.639,438.174 C 165.653,437.253 163.896,436.500 163.733,436.500 C 162.848,436.500 146.052,427.748 144.986,426.731 C 144.291,426.068 142.941,425.259 141.986,424.934 C 141.031,424.608 139.512,423.704 138.611,422.924 C 137.710,422.144 136.135,421.070 135.111,420.537 C 134.087,420.004 132.193,418.709 130.900,417.659 C 129.608,416.609 126.936,414.625 124.963,413.250 C 122.989,411.875 119.853,409.400 117.994,407.750 C 116.135,406.100 113.553,403.850 112.256,402.750 C 108.952,399.948 100.233,391.069 98.878,389.127 C 98.258,388.238 97.354,387.379 96.871,387.220 C 96.387,387.060 94.666,385.202 93.045,383.090 C 91.425,380.978 89.458,378.671 88.674,377.963 C 87.891,377.255 86.463,375.500 85.500,374.063 C 84.537,372.626 82.637,369.950 81.277,368.115 C 79.917,366.281 78.264,363.648 77.604,362.265 C 76.944,360.882 75.882,359.188 75.242,358.500 C 74.603,357.812 73.240,355.562 72.213,353.500 C 71.186,351.438 69.854,349.075 69.254,348.250 C 68.654,347.425 67.648,345.512 67.019,344.000 C 66.390,342.488 65.498,340.688 65.036,340.000 C 64.574,339.312 63.798,337.738 63.311,336.500 C 62.824,335.262 61.886,333.125 61.228,331.750 C 60.569,330.375 59.452,327.675 58.745,325.750 C 58.038,323.825 56.920,320.900 56.261,319.250 C 51.499,307.329 46.362,283.926 44.934,267.639 C 44.292,260.328 44.303,237.887 44.951,231.500 C 45.665,224.470 47.251,214.691 49.007,206.500 C 49.862,202.512 50.684,198.463 50.835,197.500 C 51.227,194.988 54.395,184.746 55.803,181.437 C 56.461,179.891 57.000,178.402 57.000,178.129 C 57.000,177.529 58.665,173.259 60.366,169.500 C 61.050,167.988 62.047,165.642 62.582,164.288 C 63.116,162.934 64.329,160.503 65.277,158.886 C 66.225,157.269 67.000,155.813 67.000,155.651 C 67.000,154.954 76.120,138.903 78.592,135.250 C 89.629,118.935 104.403,102.167 116.037,92.750 C 118.076,91.100 120.511,89.019 121.449,88.125 C 122.386,87.231 123.330,86.500 123.546,86.500 C 123.762,86.500 124.948,85.656 126.182,84.625 C 127.415,83.594 129.173,82.236 130.087,81.609 C 131.002,80.981 133.631,79.132 135.929,77.500 C 138.228,75.868 140.591,74.383 141.179,74.200 C 141.768,74.016 143.037,73.253 144.000,72.502 C 144.963,71.752 147.426,70.275 149.474,69.220 C 151.523,68.165 153.598,66.902 154.086,66.414 C 154.575,65.925 155.599,65.372 156.362,65.184 C 157.126,64.996 158.988,64.221 160.500,63.463 C 164.519,61.447 169.565,59.191 171.000,58.769 C 171.688,58.567 174.050,57.659 176.250,56.751 C 188.743,51.597 209.849,46.517 227.250,44.476 C 235.093,43.556 247.439,43.178 257.115,43.561 C 273.202,44.199 282.038,45.459 297.500,49.320 C 310.646,52.603 313.174,53.301 315.042,54.161 C 315.981,54.594 318.183,55.421 319.934,55.999 C 321.685,56.577 324.048,57.463 325.184,57.968 C 326.320,58.472 328.600,59.402 330.250,60.034 C 338.545,63.213 352.275,70.578 358.696,75.295 C 359.853,76.145 361.913,77.483 363.275,78.268 C 364.636,79.053 366.875,80.617 368.250,81.743 C 369.625,82.869 371.762,84.453 373.000,85.263 C 374.238,86.073 376.150,87.469 377.250,88.365 C 378.350,89.261 380.938,91.374 383.000,93.059 C 389.755,98.578 397.289,106.269 404.982,115.500 C 405.555,116.188 407.253,118.213 408.755,120.000 C 413.782,125.982 422.056,137.678 422.896,139.990 C 423.048,140.408 424.002,141.988 425.017,143.500 C 426.031,145.012 427.316,147.150 427.872,148.250 C 429.870,152.203 433.128,158.260 433.522,158.756 C 433.744,159.034 434.427,160.609 435.040,162.256 C 435.653,163.903 436.441,165.700 436.791,166.250 C 437.764,167.779 441.503,177.289 442.786,181.500 C 447.690,197.589 450.079,207.255 451.931,218.500 C 453.593,228.596 454.193,236.945 454.212,250.250 C 454.232,265.230 453.721,270.292 450.005,291.872 C 449.073,297.284 445.893,308.733 442.748,318.000 C 440.528,324.541 432.782,342.627 431.505,344.250 C 431.288,344.525 430.214,346.438 429.117,348.500 C 427.359,351.805 425.936,354.189 420.554,362.847 C 418.012,366.935 412.939,374.000 412.545,374.000 C 412.325,374.000 411.164,375.406 409.966,377.125 C 408.767,378.844 406.748,381.375 405.478,382.750 C 404.209,384.125 402.792,385.812 402.331,386.500 C 400.810,388.765 385.010,404.428 381.534,407.116 C 379.661,408.565 375.710,411.663 372.753,414.000 C 366.895,418.631 363.664,420.985 363.107,421.027 C 362.911,421.042 361.512,421.940 360.000,423.024 C 358.488,424.107 356.609,425.389 355.825,425.872 C 351.495,428.540 348.479,430.191 346.250,431.113 C 344.875,431.683 342.919,432.790 341.904,433.574 C 340.889,434.358 339.813,435.000 339.514,435.000 C 339.214,435.000 336.445,436.108 333.359,437.462 C 330.274,438.816 326.175,440.480 324.250,441.159 C 322.325,441.839 320.075,442.739 319.250,443.160 C 318.425,443.580 316.738,444.197 315.500,444.530 C 311.911,445.495 309.824,446.110 308.750,446.519 C 307.115,447.140 304.893,447.845 302.500,448.500 C 301.262,448.839 299.688,449.314 299.000,449.556 C 297.643,450.034 285.948,452.354 281.500,453.028 C 270.503,454.693 247.956,455.821 238.250,455.191 Z M 275.936,442.311 C 280.713,441.592 285.438,440.793 286.436,440.536 C 287.434,440.279 289.600,439.815 291.250,439.505 C 299.207,438.012 313.962,433.674 315.225,432.458 C 315.486,432.206 316.211,432.000 316.835,432.000 C 317.459,432.000 318.708,431.590 319.610,431.089 C 320.512,430.588 323.037,429.439 325.221,428.535 C 327.406,427.630 329.993,426.387 330.971,425.772 C 331.950,425.157 333.538,424.393 334.500,424.075 C 335.462,423.756 336.925,423.040 337.750,422.482 C 338.575,421.925 340.038,421.101 341.000,420.651 C 341.962,420.201 343.095,419.541 343.517,419.186 C 343.940,418.831 345.515,417.879 347.017,417.071 C 348.520,416.263 351.235,414.623 353.050,413.426 C 354.865,412.229 357.003,410.854 357.800,410.369 C 361.089,408.372 365.831,404.996 367.000,403.820 C 367.688,403.128 369.127,401.969 370.199,401.246 C 376.669,396.877 392.364,381.166 400.671,370.745 C 403.573,367.103 414.000,351.906 414.000,351.317 C 414.000,351.182 414.907,349.705 416.015,348.036 C 418.338,344.540 425.560,330.249 428.163,324.000 C 431.238,316.619 436.727,299.316 437.839,293.500 C 437.971,292.812 438.625,289.663 439.293,286.500 C 442.314,272.207 443.672,251.392 442.557,236.500 C 442.238,232.238 441.767,227.625 441.510,226.250 C 441.254,224.875 440.797,221.725 440.494,219.250 C 439.971,214.967 439.556,213.029 436.793,202.000 C 433.551,189.055 431.547,182.676 428.981,177.130 C 428.441,175.965 428.000,174.779 428.000,174.495 C 428.000,174.212 427.100,172.076 426.000,169.750 C 424.900,167.424 424.000,165.269 424.000,164.962 C 424.000,164.655 423.578,163.807 423.063,163.077 C 422.547,162.347 421.328,160.175 420.353,158.250 C 419.378,156.325 418.000,153.975 417.290,153.028 C 416.581,152.081 416.000,150.927 416.000,150.464 C 416.000,150.001 415.675,149.353 415.277,149.023 C 414.880,148.693 413.836,147.259 412.958,145.837 C 412.080,144.414 410.568,142.012 409.598,140.500 C 404.669,132.815 404.496,132.575 398.364,124.875 C 393.994,119.388 378.506,103.686 374.225,100.402 C 372.682,99.218 370.481,97.510 369.335,96.605 C 368.188,95.700 365.675,93.866 363.750,92.531 C 361.825,91.195 359.738,89.616 359.113,89.021 C 358.488,88.426 357.224,87.625 356.303,87.240 C 355.383,86.856 353.639,85.785 352.428,84.860 C 351.217,83.935 348.834,82.472 347.133,81.608 C 345.433,80.743 343.114,79.365 341.981,78.544 C 340.848,77.723 339.095,76.787 338.086,76.464 C 337.076,76.141 335.794,75.462 335.237,74.956 C 334.679,74.450 332.544,73.343 330.492,72.497 C 328.439,71.650 326.308,70.666 325.755,70.310 C 325.202,69.953 323.625,69.264 322.250,68.778 C 320.875,68.292 319.300,67.732 318.750,67.534 C 318.200,67.335 316.738,66.684 315.500,66.085 C 314.262,65.487 312.913,64.988 312.500,64.977 C 312.087,64.965 310.850,64.616 309.750,64.201 C 307.274,63.266 293.894,59.821 287.500,58.472 C 273.242,55.463 260.314,54.271 246.500,54.691 C 236.392,54.998 222.389,56.117 218.000,56.969 C 211.825,58.166 201.597,60.468 200.423,60.923 C 199.694,61.207 197.670,61.697 195.926,62.013 C 194.181,62.330 192.191,62.898 191.502,63.276 C 190.082,64.055 185.775,65.498 184.858,65.503 C 184.523,65.505 183.638,65.825 182.891,66.215 C 182.143,66.605 179.781,67.537 177.641,68.287 C 174.229,69.482 169.339,71.670 166.250,73.383 C 165.700,73.688 163.993,74.504 162.456,75.195 C 160.919,75.887 159.373,76.801 159.020,77.226 C 158.666,77.652 158.031,78.000 157.608,78.000 C 156.444,78.000 150.025,81.867 141.250,87.852 C 130.430,95.233 124.887,99.855 114.990,109.750 C 105.546,119.191 105.000,119.758 105.000,120.117 C 105.000,120.289 104.180,121.289 103.178,122.339 C 98.355,127.395 92.900,134.648 87.074,143.750 C 81.584,152.326 80.580,153.970 79.283,156.500 C 78.508,158.012 77.452,159.847 76.937,160.577 C 76.422,161.307 76.000,162.171 76.000,162.496 C 76.000,162.821 75.238,164.474 74.306,166.169 C 73.374,167.863 72.331,170.150 71.988,171.250 C 71.645,172.350 70.834,174.210 70.187,175.384 C 69.540,176.557 68.754,178.536 68.440,179.780 C 68.127,181.024 67.450,182.868 66.935,183.877 C 66.421,184.886 66.000,185.991 66.000,186.334 C 66.000,186.676 65.106,189.722 64.012,193.103 C 62.919,196.484 61.684,200.938 61.267,203.000 C 60.850,205.062 59.960,209.258 59.288,212.322 C 58.616,215.387 57.830,219.999 57.540,222.572 C 57.251,225.145 56.780,228.938 56.494,231.000 C 56.208,233.062 55.846,239.812 55.688,246.000 C 55.435,255.965 55.550,258.593 56.694,269.000 C 58.738,287.610 61.097,298.215 66.479,313.000 C 67.631,316.163 68.747,319.425 68.960,320.250 C 69.172,321.075 69.944,322.924 70.673,324.358 C 71.403,325.793 72.000,327.187 72.000,327.456 C 72.000,328.388 78.577,341.749 81.369,346.489 C 87.066,356.161 91.077,362.042 99.750,373.440 C 100.879,374.923 103.894,378.251 109.750,384.477 C 113.428,388.388 125.437,399.396 128.593,401.750 C 129.330,402.300 131.272,403.797 132.907,405.076 C 134.543,406.355 136.414,407.682 137.066,408.024 C 137.717,408.367 138.766,409.156 139.396,409.777 C 140.027,410.398 141.377,411.297 142.396,411.775 C 143.416,412.253 145.037,413.256 146.000,414.005 C 146.963,414.754 148.762,415.873 150.000,416.492 C 151.238,417.110 152.588,417.898 153.000,418.242 C 154.289,419.317 167.001,425.610 174.000,428.638 C 174.963,429.054 176.762,429.838 178.000,430.381 C 182.002,432.134 188.147,434.400 192.500,435.726 C 194.838,436.438 197.425,437.248 198.250,437.526 C 200.315,438.220 210.699,440.550 213.750,441.004 C 215.125,441.209 218.838,441.735 222.000,442.173 C 225.162,442.611 229.213,443.183 231.000,443.445 C 232.787,443.708 241.675,443.854 250.750,443.770 C 265.513,443.634 268.165,443.480 275.936,442.311 Z M 246.857,435.875 C 245.726,433.935 244.834,432.283 239.682,422.583 C 238.757,420.842 238.000,419.130 238.000,418.778 C 238.000,418.427 239.361,416.477 241.025,414.445 C 242.688,412.413 244.845,409.062 245.817,407.000 C 246.790,404.938 247.856,402.688 248.187,402.000 C 248.521,401.305 249.218,400.750 249.755,400.750 C 250.500,400.750 250.804,401.230 251.079,402.837 C 251.509,405.361 252.371,407.082 255.380,411.432 C 259.479,417.356 261.000,419.719 261.000,420.160 C 261.000,420.397 260.538,421.190 259.973,421.921 C 258.173,424.252 256.608,426.856 254.149,431.614 C 250.560,438.559 248.964,439.491 246.857,435.875 Z M 202.000,421.411 C 189.908,418.821 183.792,415.778 167.004,404.000 C 164.456,402.212 162.000,400.525 161.546,400.250 C 161.092,399.975 158.512,397.950 155.811,395.750 C 149.676,390.752 141.458,384.774 133.000,379.155 C 115.917,367.808 108.133,360.495 101.164,349.250 C 94.686,338.798 93.671,327.232 98.300,316.623 C 99.549,313.761 104.509,306.850 106.462,305.250 C 109.060,303.122 114.870,299.337 117.384,298.134 C 118.833,297.441 120.140,296.677 120.289,296.437 C 120.437,296.197 121.007,296.000 121.554,296.000 C 122.101,296.000 123.494,295.542 124.649,294.983 C 125.805,294.424 128.093,293.617 129.735,293.191 C 131.377,292.764 134.664,291.647 137.039,290.708 C 139.414,289.769 141.690,289.000 142.096,289.000 C 142.502,289.000 144.166,288.583 145.792,288.073 C 155.514,285.025 155.219,285.072 154.848,286.625 C 154.700,287.244 154.215,289.205 153.770,290.984 C 151.065,301.795 157.502,313.746 171.000,322.975 C 171.963,323.633 174.269,325.380 176.125,326.857 C 179.284,329.371 179.500,329.671 179.500,331.548 C 179.500,335.201 177.444,343.023 174.950,348.860 C 174.454,350.021 174.232,351.084 174.457,351.224 C 174.682,351.363 175.853,350.716 177.058,349.786 C 179.501,347.902 181.292,346.862 187.500,343.726 C 192.690,341.104 194.060,340.732 195.578,341.532 C 196.223,341.871 199.231,344.084 202.262,346.450 C 210.868,353.164 212.835,354.302 218.393,355.784 C 226.867,358.044 233.931,356.906 241.343,352.087 C 242.769,351.160 244.175,350.549 244.468,350.730 C 245.179,351.170 245.184,382.298 244.474,387.154 C 243.157,396.156 240.140,405.362 237.593,408.156 C 230.123,416.349 226.445,418.727 218.001,420.822 C 212.916,422.083 206.280,422.328 202.000,421.411 Z M 213.372,409.744 C 220.037,408.353 221.742,407.448 226.765,402.629 C 229.082,400.406 231.245,396.800 230.746,395.993 C 230.585,395.733 229.058,396.600 227.352,397.920 C 220.668,403.092 217.252,404.286 210.350,403.860 C 205.419,403.557 201.859,402.325 197.600,399.451 C 196.417,398.653 195.256,398.000 195.018,398.000 C 194.228,398.000 175.637,379.206 172.739,375.478 C 171.012,373.256 160.859,364.787 157.983,363.170 C 156.462,362.314 154.916,361.251 154.547,360.807 C 154.179,360.363 153.536,360.000 153.119,360.000 C 152.701,360.000 149.786,358.762 146.640,357.250 C 143.494,355.738 140.740,354.500 140.519,354.500 C 139.926,354.500 130.829,350.041 126.416,347.587 C 122.708,345.525 119.237,342.182 116.042,337.595 C 114.602,335.528 113.680,331.934 113.245,326.700 C 112.938,322.991 113.039,322.279 114.449,318.236 C 115.295,315.808 115.856,313.693 115.695,313.536 C 115.107,312.963 110.803,318.335 109.313,321.500 C 107.900,324.501 107.781,325.171 107.768,330.250 C 107.755,335.709 107.770,335.782 109.860,340.059 C 112.042,344.526 116.336,349.573 120.058,352.048 C 125.657,355.770 127.606,356.917 131.000,358.483 C 133.062,359.435 135.200,360.589 135.750,361.047 C 136.300,361.505 137.650,362.184 138.750,362.555 C 139.850,362.926 141.537,363.732 142.500,364.345 C 143.463,364.959 145.173,365.786 146.301,366.182 C 147.429,366.579 149.567,367.824 151.051,368.950 C 152.535,370.075 153.929,370.997 154.147,370.998 C 154.365,370.999 155.896,372.125 157.548,373.500 C 159.200,374.875 160.709,376.001 160.901,376.003 C 161.093,376.004 166.988,381.652 174.000,388.552 C 181.012,395.453 187.875,401.829 189.250,402.721 C 196.143,407.194 198.567,408.347 203.500,409.502 C 208.330,410.632 209.031,410.649 213.372,409.744 Z M 281.750,421.259 C 273.548,419.450 269.668,417.053 262.826,409.562 C 259.409,405.822 256.110,398.206 254.461,390.250 C 253.621,386.195 253.242,350.218 254.035,349.729 C 254.338,349.541 255.298,350.077 256.168,350.919 C 258.171,352.857 263.655,355.759 266.184,356.217 C 271.517,357.183 276.172,356.878 281.294,355.226 C 284.719,354.121 293.137,349.056 299.390,344.337 C 302.941,341.658 303.411,341.445 305.260,341.687 C 307.964,342.040 316.340,346.390 320.284,349.489 C 322.041,350.870 323.708,352.000 323.989,352.000 C 324.819,352.000 324.580,350.625 323.313,348.108 C 321.818,345.139 320.545,340.035 319.867,334.294 L 319.341,329.837 L 320.880,328.544 C 325.689,324.503 326.892,323.579 328.260,322.873 C 329.090,322.444 332.128,319.757 335.010,316.902 C 343.847,308.148 346.296,302.325 345.098,292.910 C 344.772,290.347 344.366,287.631 344.195,286.875 C 343.962,285.847 344.073,285.500 344.634,285.500 C 345.459,285.500 349.352,286.623 353.250,287.986 C 360.899,290.660 362.406,291.149 364.000,291.474 C 364.962,291.671 366.425,292.183 367.250,292.613 C 368.075,293.043 369.762,293.662 371.000,293.989 C 372.238,294.315 374.150,295.001 375.250,295.514 C 376.350,296.026 378.262,296.898 379.500,297.452 C 387.626,301.088 395.113,307.620 398.916,314.393 C 401.371,318.763 403.000,325.134 403.000,330.361 C 403.000,337.503 400.147,346.002 395.380,353.061 C 393.236,356.235 389.349,360.732 387.038,362.711 C 384.205,365.138 380.126,368.672 378.500,370.109 C 377.538,370.960 375.681,372.315 374.375,373.121 C 373.069,373.926 372.000,374.797 372.000,375.055 C 372.000,375.313 371.482,375.722 370.848,375.963 C 370.215,376.203 369.146,376.867 368.473,377.436 C 366.156,379.398 361.238,383.018 356.322,386.380 C 353.612,388.233 350.687,390.260 349.822,390.883 C 348.958,391.506 347.684,392.406 346.992,392.883 C 346.301,393.360 345.176,394.266 344.492,394.897 C 342.836,396.425 333.651,403.158 331.051,404.750 C 330.602,405.025 329.450,405.847 328.492,406.576 C 327.534,407.305 326.041,408.318 325.174,408.826 C 324.307,409.334 321.719,410.867 319.424,412.233 C 311.009,417.240 307.886,418.596 300.250,420.562 C 294.018,422.166 287.055,422.429 281.750,421.259 Z M 294.366,409.710 C 296.470,409.276 299.104,408.450 300.220,407.874 C 301.337,407.299 302.700,406.600 303.250,406.320 C 303.800,406.041 304.936,405.461 305.775,405.031 C 309.218,403.267 314.284,398.769 327.750,385.517 C 333.250,380.105 338.650,375.018 339.750,374.213 C 340.849,373.408 342.186,372.356 342.719,371.875 C 343.252,371.394 343.913,371.000 344.187,371.000 C 344.461,371.000 345.150,370.572 345.718,370.049 C 346.932,368.930 350.990,366.673 357.250,363.635 C 359.725,362.434 362.087,361.236 362.500,360.972 C 362.913,360.708 363.812,360.243 364.500,359.938 C 366.499,359.051 374.643,355.020 375.877,354.307 C 376.497,353.949 378.703,352.214 380.779,350.453 C 389.457,343.089 392.993,332.555 390.018,322.928 C 388.715,318.712 384.780,312.500 383.413,312.500 C 382.693,312.500 382.965,314.437 383.992,316.630 C 386.934,322.912 386.535,330.896 382.962,337.252 C 380.935,340.859 375.535,346.279 372.691,347.560 C 371.559,348.071 370.359,348.817 370.026,349.219 C 369.693,349.620 368.606,350.218 367.611,350.546 C 366.615,350.874 364.711,351.786 363.379,352.572 C 362.046,353.357 360.685,353.999 360.353,353.999 C 360.021,353.998 358.850,354.425 357.750,354.949 C 356.650,355.472 353.837,356.786 351.500,357.869 C 345.069,360.848 342.847,361.933 341.764,362.622 C 334.240,367.413 332.590,368.816 322.862,378.698 C 305.087,396.753 303.821,398.000 303.259,398.000 C 302.958,398.000 301.933,398.666 300.981,399.480 C 300.029,400.294 298.953,400.969 298.589,400.980 C 298.226,400.991 296.980,401.556 295.821,402.235 C 293.005,403.885 286.653,404.637 282.899,403.764 C 278.844,402.821 273.792,400.167 270.920,397.471 C 269.498,396.136 268.170,395.145 267.969,395.269 C 267.768,395.393 267.780,396.275 267.995,397.229 C 269.142,402.311 278.421,409.103 285.458,410.009 C 289.797,410.568 290.293,410.552 294.366,409.710 Z M 222.378,347.794 C 220.524,347.137 217.981,345.998 216.728,345.263 C 213.515,343.380 207.478,337.093 203.485,331.471 C 199.905,326.430 194.522,321.002 193.097,320.997 C 192.631,320.995 191.575,320.546 190.750,320.000 C 189.925,319.454 188.947,319.005 188.576,319.003 C 188.206,319.001 185.506,317.849 182.576,316.441 C 179.647,315.034 175.900,313.235 174.250,312.444 C 165.755,308.371 160.918,301.614 160.864,293.750 C 160.839,290.094 162.052,287.316 165.290,283.616 C 166.952,281.715 167.934,281.000 168.882,281.000 C 169.599,281.000 170.650,280.589 171.218,280.088 C 171.785,279.586 173.262,278.877 174.500,278.512 C 179.365,277.078 184.258,275.409 184.742,275.017 C 185.021,274.791 186.488,274.263 188.000,273.845 C 196.707,271.437 201.983,269.812 203.750,268.993 C 204.850,268.484 206.875,267.791 208.250,267.454 C 209.625,267.117 211.837,266.302 213.165,265.642 C 215.063,264.699 215.731,264.569 216.290,265.033 C 216.680,265.357 217.000,265.803 217.000,266.025 C 217.000,266.246 218.181,268.157 219.625,270.273 C 224.151,276.904 223.910,275.852 221.867,280.048 C 220.877,282.084 219.604,284.762 219.039,286.000 C 218.475,287.238 217.802,288.587 217.545,289.000 C 216.721,290.320 213.863,298.030 214.107,298.274 C 214.443,298.610 221.141,292.619 221.805,291.389 C 222.110,290.823 222.806,290.110 223.352,289.805 C 224.671,289.067 228.782,284.372 229.753,282.495 C 230.692,280.679 231.331,280.644 234.472,282.236 C 235.814,282.916 238.549,283.926 240.550,284.480 C 242.551,285.035 244.386,285.686 244.627,285.927 C 245.311,286.611 244.851,337.464 244.147,339.068 C 242.969,341.750 238.415,345.743 235.000,347.088 C 230.027,349.046 226.469,349.245 222.378,347.794 Z M 264.750,347.595 C 257.713,344.960 254.543,341.522 253.828,335.750 C 253.657,334.375 253.497,322.568 253.471,309.512 C 253.427,286.963 253.470,285.756 254.337,285.434 C 254.839,285.247 256.938,284.593 259.000,283.981 C 261.062,283.369 263.347,282.447 264.077,281.934 C 264.807,281.420 265.707,281.011 266.077,281.024 C 266.447,281.038 267.762,282.296 269.000,283.820 C 272.183,287.740 282.563,298.000 283.346,298.000 C 283.706,298.000 284.000,297.766 284.000,297.480 C 284.000,296.851 282.195,293.229 281.020,291.500 C 280.553,290.812 279.638,288.900 278.988,287.250 C 278.337,285.600 277.182,283.106 276.421,281.707 C 275.661,280.309 274.895,278.271 274.721,277.180 C 274.424,275.326 274.572,274.998 276.948,272.222 C 278.348,270.587 279.888,268.295 280.371,267.127 C 281.133,265.286 281.450,265.006 282.750,265.024 C 283.575,265.035 286.725,265.907 289.750,266.962 C 292.775,268.017 299.075,270.163 303.750,271.731 C 308.425,273.299 312.925,274.898 313.750,275.284 C 314.575,275.670 317.050,276.581 319.250,277.309 C 321.450,278.037 324.459,279.165 325.937,279.816 C 327.415,280.467 329.022,281.000 329.508,281.000 C 331.255,281.000 335.307,285.309 336.748,288.700 C 337.917,291.451 338.087,292.447 337.927,295.610 C 337.768,298.763 337.485,299.728 335.995,302.189 C 334.145,305.247 329.270,310.500 328.282,310.500 C 327.959,310.500 326.932,311.062 326.000,311.750 C 325.068,312.438 323.943,313.000 323.500,313.000 C 323.057,313.000 321.964,313.539 321.072,314.197 C 320.179,314.855 318.480,315.638 317.295,315.937 C 316.109,316.235 314.856,316.821 314.509,317.240 C 314.162,317.658 313.399,318.002 312.814,318.004 C 312.229,318.007 309.884,318.907 307.603,320.004 C 305.323,321.102 303.298,322.000 303.103,322.000 C 302.713,322.000 296.676,328.529 295.523,330.198 C 292.353,334.786 285.606,341.760 281.649,344.539 C 276.500,348.156 269.585,349.407 264.750,347.595 Z M 87.750,312.476 C 86.925,312.244 84.112,311.575 81.500,310.990 C 75.270,309.594 70.000,307.920 70.000,307.337 C 70.000,307.081 70.731,306.041 71.625,305.026 C 72.519,304.011 75.083,300.947 77.324,298.216 C 79.564,295.485 81.960,292.726 82.648,292.086 C 83.873,290.945 83.932,290.939 85.574,291.791 C 87.968,293.032 97.280,295.516 99.750,295.572 C 102.290,295.629 104.500,296.140 104.495,296.669 C 104.492,296.989 103.671,298.038 102.671,299.000 C 101.670,299.962 100.267,301.543 99.551,302.512 C 96.500,306.645 90.691,312.990 90.000,312.946 C 89.588,312.920 88.575,312.708 87.750,312.476 Z M 404.227,309.136 C 402.590,307.010 399.279,303.241 396.870,300.761 C 392.682,296.447 392.551,296.245 393.870,296.131 C 400.086,295.593 409.425,293.320 411.794,291.767 C 412.438,291.345 413.260,291.000 413.621,291.000 C 414.508,291.000 421.183,297.995 424.127,302.009 C 425.435,303.791 426.995,305.865 427.594,306.617 C 428.193,307.369 428.543,308.123 428.373,308.294 C 428.090,308.577 422.588,309.796 416.250,310.980 C 414.875,311.237 412.445,311.797 410.851,312.224 C 409.256,312.651 407.783,313.000 407.577,313.000 C 407.372,313.000 405.864,311.261 404.227,309.136 Z M 98.197,288.273 C 90.469,286.276 86.590,284.168 81.869,279.397 C 79.604,277.108 77.309,274.338 76.771,273.242 C 76.232,272.147 75.427,270.688 74.980,270.000 C 72.784,266.617 71.228,258.223 71.320,250.250 C 71.446,239.335 74.775,224.175 80.489,208.500 C 81.241,206.438 82.148,203.625 82.506,202.250 C 82.863,200.875 83.322,199.525 83.525,199.250 C 83.729,198.975 84.391,197.062 84.995,195.000 C 85.600,192.938 86.749,189.251 87.548,186.809 C 88.346,184.366 89.000,182.170 89.000,181.928 C 89.000,181.687 89.432,180.535 89.959,179.370 C 90.487,178.204 91.415,175.562 92.023,173.500 C 92.630,171.438 93.637,168.400 94.259,166.750 C 94.882,165.100 95.556,163.188 95.757,162.500 C 96.609,159.590 100.862,150.887 103.695,146.258 C 107.777,139.587 112.792,134.656 119.325,130.891 C 125.091,127.567 129.145,126.500 136.008,126.500 C 143.758,126.500 149.138,128.288 154.933,132.791 C 156.673,134.143 158.849,135.751 159.767,136.362 C 161.385,137.440 165.945,142.752 168.500,146.535 C 169.744,148.377 178.867,160.479 184.201,167.363 C 185.740,169.350 187.000,171.123 187.000,171.303 C 187.000,171.484 186.156,171.493 185.125,171.325 C 179.306,170.374 171.426,173.721 164.925,179.904 C 161.206,183.442 160.249,184.703 158.479,188.404 C 155.907,193.781 155.302,195.441 152.464,204.909 C 151.374,208.547 147.440,209.877 136.398,210.341 C 129.352,210.637 129.067,210.690 129.558,211.609 C 129.840,212.136 131.028,213.174 132.198,213.916 C 134.205,215.188 138.752,219.576 143.074,224.407 C 145.261,226.852 145.267,226.519 142.901,233.750 C 138.959,245.802 138.045,253.118 139.703,259.345 C 141.341,265.498 145.673,271.468 150.719,274.526 C 152.248,275.453 153.500,276.380 153.500,276.586 C 153.500,276.793 152.544,277.192 151.375,277.474 C 150.206,277.755 145.200,279.315 140.250,280.940 C 129.772,284.379 126.589,285.331 123.500,285.948 C 122.263,286.195 119.450,286.856 117.250,287.418 C 115.050,287.979 111.562,288.575 109.500,288.742 C 107.438,288.909 105.075,289.137 104.250,289.248 C 103.425,289.358 100.701,288.920 98.197,288.273 Z M 105.500,277.757 C 105.500,277.623 104.769,277.204 103.875,276.826 C 102.070,276.062 94.539,268.655 93.012,266.141 C 91.270,263.275 90.000,258.526 90.000,254.881 C 90.000,247.723 93.240,239.127 100.037,228.250 C 102.332,224.578 105.477,218.443 108.624,211.500 C 112.464,203.029 114.321,194.414 116.009,177.250 C 116.577,171.475 117.300,165.738 117.615,164.500 C 118.941,159.305 121.341,154.430 124.288,150.942 C 126.762,148.015 127.942,147.094 131.451,145.349 L 135.652,143.261 L 141.603,143.336 C 145.909,143.389 147.507,143.250 147.386,142.830 C 147.293,142.511 145.650,141.469 143.734,140.514 C 140.772,139.039 139.726,138.776 136.750,138.764 C 130.089,138.737 125.021,141.041 119.211,146.738 C 116.740,149.160 114.589,151.804 113.783,153.410 C 112.010,156.943 109.650,164.246 109.029,168.126 C 108.288,172.751 107.148,181.540 106.516,187.500 C 105.662,195.546 102.885,205.193 99.429,212.111 C 98.643,213.684 98.000,215.219 98.000,215.521 C 98.000,215.823 97.290,217.102 96.422,218.363 C 95.555,219.624 94.412,221.802 93.883,223.203 C 93.353,224.604 92.512,226.200 92.012,226.750 C 90.293,228.641 85.022,240.274 83.962,244.515 C 82.616,249.900 82.810,257.061 84.436,262.086 C 87.144,270.451 96.056,277.540 104.375,277.945 C 104.994,277.975 105.500,277.891 105.500,277.757 Z M 384.500,288.297 C 379.973,287.515 373.939,285.999 373.250,285.470 C 372.975,285.259 370.837,284.616 368.500,284.041 C 366.163,283.466 363.575,282.675 362.750,282.285 C 361.925,281.894 359.675,281.081 357.750,280.478 C 355.825,279.875 353.238,278.920 352.000,278.356 C 350.762,277.791 348.962,277.195 348.000,277.031 C 345.549,276.614 345.780,275.574 348.786,273.500 C 354.667,269.442 358.408,263.594 359.501,256.749 C 360.053,253.295 360.027,252.084 359.312,247.893 C 358.491,243.076 355.820,234.201 353.966,230.130 C 353.434,228.965 353.000,227.675 353.000,227.265 C 353.000,226.547 358.804,219.955 360.645,218.583 C 361.137,218.216 361.925,217.530 362.395,217.060 C 362.865,216.589 364.431,215.237 365.875,214.056 C 369.841,210.809 369.561,210.501 362.625,210.494 C 358.579,210.490 355.582,210.198 353.000,209.555 C 346.679,207.981 346.844,208.138 344.730,201.656 C 343.703,198.506 341.560,193.300 339.969,190.089 C 337.572,185.253 336.403,183.549 333.162,180.170 C 330.043,176.917 328.431,175.687 325.211,174.105 C 321.087,172.078 317.282,171.000 314.255,171.000 C 313.322,171.000 312.447,170.819 312.310,170.597 C 312.173,170.375 313.176,168.631 314.539,166.722 C 315.902,164.812 317.733,162.244 318.608,161.015 C 319.483,159.787 322.075,156.412 324.368,153.515 C 326.661,150.619 329.474,147.012 330.619,145.500 C 331.765,143.988 335.081,140.366 337.989,137.453 C 342.763,132.671 343.789,131.905 348.548,129.575 C 355.022,126.406 359.810,125.576 366.250,126.508 C 370.859,127.175 378.670,130.023 380.500,131.704 C 381.188,132.336 382.833,133.582 384.157,134.473 C 389.008,137.737 395.311,145.890 399.357,154.133 C 401.782,159.074 406.715,173.087 411.984,190.000 C 415.070,199.903 419.999,215.060 420.602,216.500 C 421.503,218.650 423.980,226.582 424.973,230.500 C 427.193,239.253 427.700,243.119 427.659,251.000 C 427.622,258.119 427.494,259.168 426.094,263.877 C 423.868,271.363 420.909,275.997 415.094,281.101 C 411.781,284.010 409.263,285.376 403.747,287.255 C 398.945,288.892 390.568,289.345 384.500,288.297 Z M 401.750,275.583 C 403.125,274.850 405.938,272.555 408.000,270.483 C 410.944,267.527 412.054,265.981 413.163,263.296 C 416.056,256.290 416.087,249.154 413.259,241.239 C 411.542,236.434 410.830,234.879 407.085,227.750 C 399.686,213.666 397.347,208.614 395.795,203.362 C 393.607,195.958 393.235,194.039 391.714,182.307 C 389.633,166.253 388.842,162.367 386.460,156.500 C 383.671,149.630 379.886,145.364 373.079,141.421 C 370.468,139.909 369.197,139.483 364.386,138.509 C 359.907,137.602 350.500,140.213 350.500,142.363 C 350.500,142.824 351.884,142.966 355.875,142.912 C 363.690,142.807 368.701,144.680 373.875,149.639 C 379.145,154.690 381.345,162.245 383.514,182.750 C 384.177,189.019 385.273,196.424 385.919,199.000 C 387.839,206.655 395.006,223.282 398.191,227.472 C 398.911,228.419 399.500,229.445 399.500,229.752 C 399.500,230.058 400.234,231.533 401.131,233.029 C 403.993,237.803 407.558,246.832 408.098,250.674 C 409.019,257.236 407.837,262.900 404.549,267.679 C 402.572,270.553 397.725,275.497 396.875,275.508 C 395.787,275.521 394.858,276.365 395.243,276.989 C 395.769,277.840 398.707,277.205 401.750,275.583 Z M 242.112,276.177 C 239.511,275.606 232.106,271.287 229.716,268.946 C 225.913,265.221 222.638,258.499 221.899,252.899 C 221.407,249.170 221.445,248.049 222.169,245.050 C 224.815,234.085 231.895,226.105 241.466,223.297 C 244.885,222.294 251.878,222.263 255.607,223.234 C 264.908,225.656 272.863,233.515 275.307,242.694 C 276.665,247.792 275.951,258.097 274.092,260.224 C 273.599,260.788 272.675,262.300 272.040,263.584 C 270.903,265.881 265.342,272.000 264.391,272.000 C 264.123,272.000 263.239,272.474 262.426,273.053 C 259.284,275.290 256.079,276.085 249.500,276.260 C 246.062,276.351 242.738,276.314 242.112,276.177 Z M 157.237,271.028 C 154.161,269.253 151.518,266.525 149.702,263.250 C 148.586,261.236 148.273,259.936 148.092,256.564 C 147.966,254.196 148.136,251.156 148.484,249.564 C 149.238,246.121 152.912,239.160 158.019,231.500 C 164.564,221.681 164.889,220.692 165.488,208.750 C 165.969,199.171 166.913,193.498 168.568,190.250 C 171.634,184.231 173.698,182.150 178.750,179.985 C 182.203,178.505 186.842,178.757 190.432,180.620 C 193.465,182.193 196.978,184.992 196.991,185.845 C 196.996,186.172 197.844,187.420 198.875,188.618 C 199.906,189.816 202.325,192.986 204.250,195.661 C 210.872,204.865 215.284,210.753 216.640,212.198 C 217.388,212.994 218.000,213.851 218.000,214.101 C 218.000,214.351 219.096,215.911 220.437,217.567 C 224.516,222.610 224.530,222.672 222.092,225.156 C 220.942,226.328 219.241,228.741 218.312,230.518 C 216.662,233.673 216.576,233.749 214.686,233.696 C 213.621,233.666 210.162,233.156 207.000,232.563 C 199.985,231.248 192.000,230.617 192.000,231.379 C 192.000,232.626 208.518,242.000 210.714,242.000 C 211.146,242.000 211.894,242.395 212.375,242.877 C 213.117,243.621 213.250,244.727 213.250,250.180 L 213.250,256.606 L 211.500,257.254 C 210.537,257.610 206.713,258.849 203.000,260.007 C 199.287,261.165 194.675,262.633 192.750,263.268 C 190.825,263.903 187.562,264.907 185.500,265.499 C 180.452,266.949 176.857,268.134 176.250,268.547 C 175.477,269.074 168.619,270.857 165.000,271.471 C 163.213,271.775 161.294,272.122 160.737,272.243 C 160.179,272.364 158.604,271.817 157.237,271.028 Z M 331.750,271.427 C 328.356,270.629 325.966,269.907 320.000,267.879 C 316.837,266.803 312.900,265.514 311.250,265.014 C 309.600,264.513 307.575,263.855 306.750,263.551 C 299.154,260.750 289.532,258.000 287.328,258.000 C 286.355,258.000 285.459,257.831 285.337,257.625 C 285.215,257.419 285.032,254.010 284.932,250.050 L 284.750,242.850 L 289.500,240.792 C 294.636,238.567 294.867,238.447 300.930,234.808 C 305.239,232.221 306.291,230.658 303.375,231.174 C 302.481,231.332 299.965,231.708 297.783,232.008 C 295.602,232.308 293.662,232.650 293.473,232.767 C 293.140,232.973 283.496,234.500 282.530,234.500 C 282.268,234.500 281.206,233.206 280.171,231.625 C 279.135,230.044 277.436,227.723 276.394,226.468 C 275.352,225.213 274.504,223.863 274.508,223.468 C 274.518,222.591 276.047,220.051 278.899,216.172 C 280.081,214.565 282.219,211.649 283.649,209.692 C 285.080,207.735 287.600,204.397 289.250,202.274 C 293.265,197.110 293.742,196.468 297.449,191.250 C 301.779,185.156 304.689,182.242 308.205,180.480 C 318.259,175.443 330.701,184.460 332.394,198.010 C 332.685,200.342 333.179,205.625 333.492,209.750 C 334.543,223.596 334.590,223.716 344.590,238.349 C 348.372,243.883 350.500,250.218 350.500,255.945 C 350.500,260.011 347.396,266.338 344.393,268.395 C 339.208,271.947 336.612,272.569 331.750,271.427 Z M 228.408,214.058 C 226.946,211.890 223.383,206.996 220.491,203.183 C 215.938,197.180 212.356,192.265 205.104,182.065 C 201.835,177.467 201.000,175.322 201.000,171.524 C 201.000,165.795 201.792,163.690 205.242,160.250 C 207.182,158.315 209.622,156.557 212.115,155.299 L 215.981,153.347 L 222.115,153.662 C 228.050,153.966 229.345,154.207 238.500,156.710 C 248.437,159.427 249.751,159.445 259.500,156.997 C 277.734,152.418 280.712,152.274 287.351,155.655 C 294.634,159.363 297.017,163.034 297.152,170.750 L 297.231,175.250 L 294.322,180.000 C 292.721,182.613 290.780,185.425 290.008,186.250 C 289.235,187.075 287.961,188.677 287.177,189.810 C 285.259,192.580 277.492,203.510 273.615,208.895 C 271.890,211.290 269.775,214.319 268.915,215.625 C 267.201,218.227 266.786,218.395 265.060,217.186 C 263.858,216.344 261.881,215.734 258.000,215.007 C 253.297,214.127 253.002,213.869 252.982,210.637 C 252.973,209.049 252.623,205.725 252.206,203.250 C 251.789,200.775 251.104,196.613 250.684,194.000 C 249.672,187.697 248.742,186.711 247.970,191.120 C 247.765,192.292 247.102,195.725 246.498,198.750 C 245.893,201.775 245.252,206.275 245.074,208.750 L 244.750,213.250 L 241.500,214.350 C 239.713,214.955 237.663,215.461 236.945,215.475 C 236.227,215.489 234.811,216.062 233.798,216.750 C 232.784,217.438 231.755,218.000 231.511,218.000 C 231.266,218.000 229.870,216.226 228.408,214.058 Z M 303.655,164.625 C 301.049,157.349 299.439,154.502 296.317,151.649 C 293.599,149.164 289.436,146.858 284.040,144.849 C 281.581,143.933 279.945,143.793 270.250,143.669 C 259.490,143.532 259.230,143.504 258.318,142.389 C 256.644,140.343 253.158,132.860 251.440,127.625 C 250.515,124.806 249.583,122.500 249.368,122.500 C 249.154,122.500 248.777,123.006 248.531,123.625 C 248.286,124.244 247.128,127.225 245.960,130.250 C 244.792,133.275 242.982,137.470 241.939,139.571 L 240.043,143.392 L 228.646,143.606 C 218.670,143.793 216.874,143.952 214.234,144.878 C 207.723,147.164 199.675,153.149 197.598,157.250 C 195.989,160.428 194.500,163.899 194.500,164.473 C 194.500,165.376 193.222,165.052 192.142,163.875 C 191.180,162.826 187.296,157.668 181.695,150.000 C 180.389,148.213 178.708,145.947 177.960,144.967 C 177.212,143.986 176.182,142.411 175.671,141.467 C 175.159,140.522 173.883,138.465 172.834,136.893 C 171.785,135.322 170.520,132.960 170.022,131.643 C 169.524,130.327 168.768,128.451 168.343,127.474 C 167.482,125.497 166.216,118.972 165.729,114.000 C 164.882,105.351 169.916,94.395 177.552,88.270 C 181.213,85.333 183.775,83.561 185.072,83.068 C 185.792,82.794 188.039,81.786 190.065,80.827 C 192.092,79.868 195.438,78.723 197.500,78.282 C 199.562,77.842 202.486,77.147 203.997,76.737 C 207.557,75.773 215.691,75.523 251.250,75.284 C 281.203,75.082 292.377,75.553 297.250,77.222 C 298.350,77.599 300.500,78.159 302.027,78.467 C 305.055,79.079 317.631,84.969 318.322,86.100 C 318.557,86.485 319.425,87.274 320.250,87.852 C 324.545,90.865 328.528,95.774 330.743,100.783 C 332.583,104.942 333.367,112.757 332.536,118.647 C 331.740,124.282 330.439,128.629 328.624,131.712 C 327.868,132.996 326.800,134.806 326.250,135.735 C 324.502,138.688 319.099,146.296 318.247,147.003 C 317.796,147.377 317.001,148.518 316.481,149.537 C 315.961,150.557 314.715,152.260 313.712,153.321 C 312.709,154.382 310.754,156.938 309.367,159.000 C 304.684,165.963 304.278,166.363 303.655,164.625 Z M 180.484,115.250 C 181.431,110.786 182.891,108.062 185.978,104.998 C 190.375,100.633 194.806,98.642 202.699,97.487 C 206.266,96.965 211.488,97.409 217.750,98.766 C 219.400,99.124 223.562,99.996 227.000,100.704 C 230.438,101.413 234.262,102.212 235.500,102.480 C 247.076,104.987 255.302,104.447 277.250,99.734 C 284.601,98.156 286.696,97.903 292.750,97.860 C 299.715,97.812 299.770,97.820 303.801,99.581 C 308.645,101.697 312.033,103.946 313.680,106.139 C 315.431,108.471 317.787,113.362 318.743,116.651 C 320.485,122.643 321.717,118.715 320.482,111.107 C 319.531,105.243 318.202,102.629 314.167,98.684 C 312.143,96.706 309.478,94.496 308.244,93.773 C 303.186,90.809 295.344,89.216 288.000,89.663 C 283.105,89.960 281.460,90.237 272.500,92.272 C 264.372,94.117 258.040,94.754 248.250,94.709 C 240.607,94.673 237.817,94.428 229.750,93.084 C 224.525,92.213 219.238,91.274 218.000,90.996 C 213.121,89.903 204.432,89.557 200.181,90.287 C 190.652,91.923 180.745,99.412 178.897,106.376 C 177.764,110.645 177.496,116.398 178.310,118.964 C 178.730,120.286 179.804,118.450 180.484,115.250 Z M 154.750,124.210 C 152.275,123.009 149.962,122.021 149.611,122.013 C 149.259,122.006 147.634,121.325 146.000,120.500 C 144.366,119.675 142.351,119.000 141.524,119.000 C 140.370,119.000 139.961,118.738 139.771,117.875 C 139.507,116.679 138.502,101.401 138.501,98.569 C 138.500,96.900 138.512,96.891 140.375,97.231 C 141.406,97.420 142.925,97.917 143.750,98.336 C 146.587,99.777 152.251,101.997 153.095,101.998 C 153.561,101.999 154.063,102.197 154.212,102.439 C 154.361,102.680 155.443,103.119 156.617,103.415 L 158.750,103.952 L 158.800,112.601 C 158.827,117.358 159.097,122.263 159.400,123.500 C 159.702,124.737 159.792,125.895 159.600,126.071 C 159.407,126.248 157.225,125.411 154.750,124.210 Z M 338.500,125.664 C 338.500,125.479 338.857,123.425 339.293,121.099 C 340.008,117.278 340.086,108.643 339.435,105.303 C 339.283,104.527 339.867,104.155 342.685,103.231 C 344.574,102.612 346.599,101.874 347.185,101.592 C 353.933,98.339 357.229,97.000 358.490,97.000 C 359.998,97.000 360.000,97.005 359.977,99.875 C 359.911,108.093 359.093,118.633 358.493,119.005 C 358.142,119.221 356.482,119.668 354.803,119.998 C 349.516,121.037 345.224,122.657 342.009,124.826 C 340.352,125.943 338.500,126.386 338.500,125.664 Z" fill="#000000" fill-rule="evenodd" /></svg>