<svg xmlns="http://www.w3.org/2000/svg" viewBox="0 0 416 402" width="416" height="402"><path d="M 56.315,388.491 C 52.619,388.039 48.213,387.081 47.000,386.465 C 46.587,386.255 45.416,385.722 44.396,385.279 C 43.377,384.836 42.411,384.261 42.251,384.001 C 42.090,383.741 40.980,383.096 39.785,382.567 C 37.059,381.361 31.821,376.401 28.099,371.500 C 24.439,366.683 23.474,364.607 21.706,357.750 C 20.592,353.430 20.434,343.810 21.422,340.500 C 23.034,335.100 25.209,331.295 28.566,328.002 C 34.183,322.494 37.763,321.235 49.000,320.821 L 55.250,320.591 L 57.157,318.420 C 58.206,317.227 59.767,315.238 60.626,314.000 C 61.485,312.762 63.226,310.512 64.496,309.000 C 65.766,307.488 68.480,304.242 70.527,301.788 C 72.575,299.333 74.812,296.653 75.500,295.832 C 81.541,288.617 93.727,275.827 110.069,259.550 C 114.583,255.053 116.564,253.145 127.628,242.625 C 130.014,240.356 132.193,238.500 132.470,238.500 C 132.748,238.500 133.301,239.119 133.700,239.875 C 134.099,240.631 136.041,242.825 138.016,244.750 C 139.990,246.675 142.672,249.513 143.975,251.057 C 146.588,254.153 152.871,260.097 160.034,266.250 C 164.975,270.493 169.000,274.413 169.000,274.982 C 169.000,275.170 167.335,277.108 165.299,279.287 C 153.335,292.098 149.015,296.798 147.054,299.134 C 143.438,303.444 135.288,311.719 125.518,321.000 C 120.452,325.812 114.157,331.817 111.529,334.343 C 106.939,338.754 105.933,339.603 100.672,343.500 C 98.471,345.131 94.505,348.620 90.642,352.325 C 88.879,354.016 88.964,353.559 88.742,362.500 C 88.691,364.562 88.187,368.100 87.622,370.361 C 86.613,374.400 85.690,376.007 81.398,381.195 C 79.403,383.606 74.389,386.863 71.383,387.701 C 67.992,388.645 60.700,389.028 56.315,388.491 Z M 61.388,362.304 C 64.523,360.672 66.998,356.365 67.098,352.363 C 67.261,345.850 61.307,340.814 54.545,341.744 C 51.442,342.171 49.607,343.318 47.756,345.991 C 45.683,348.983 45.359,354.147 47.022,357.686 C 48.245,360.287 50.693,362.552 52.868,363.095 C 54.857,363.591 59.794,363.133 61.388,362.304 Z M 208.915,298.604 C 206.257,296.759 203.039,294.519 201.765,293.625 C 200.492,292.731 199.271,292.000 199.052,292.000 C 198.834,292.000 198.226,291.524 197.702,290.942 C 197.179,290.360 195.763,289.203 194.556,288.371 C 193.350,287.538 190.879,285.513 189.066,283.870 C 187.254,282.227 184.191,279.680 182.260,278.209 C 174.541,272.327 134.470,232.149 126.200,222.000 C 125.416,221.037 122.969,218.201 120.762,215.696 C 115.820,210.086 112.962,206.682 110.620,203.614 C 107.808,199.929 104.000,193.941 104.000,193.203 C 104.000,192.835 105.049,191.345 106.331,189.892 C 109.759,186.006 118.556,176.530 119.995,175.174 C 121.317,173.927 123.000,173.603 123.000,174.595 C 123.000,175.419 126.553,181.239 130.878,187.499 C 138.161,198.040 144.397,204.785 165.711,225.177 C 170.640,229.892 174.956,234.088 175.302,234.500 C 176.775,236.252 196.899,256.282 203.184,262.250 C 210.901,269.579 214.783,272.924 219.500,276.311 C 221.287,277.594 222.975,278.896 223.250,279.205 C 223.624,279.624 228.801,283.195 231.455,284.865 C 231.568,284.936 231.287,285.407 230.830,285.911 C 230.374,286.416 230.000,287.011 230.000,287.233 C 230.000,288.065 215.479,301.999 214.633,301.979 C 214.147,301.968 211.574,300.449 208.915,298.604 Z M 198.250,248.187 C 195.225,244.447 191.255,239.557 189.427,237.319 C 185.926,233.033 179.617,226.428 176.250,223.526 C 175.150,222.577 172.338,220.020 170.000,217.842 C 167.662,215.665 164.512,213.001 163.000,211.922 C 156.618,207.371 151.809,203.676 151.651,203.202 C 151.480,202.690 229.814,123.863 241.556,112.729 C 251.652,103.158 266.163,90.081 274.000,83.494 C 286.912,72.641 289.629,70.542 300.000,63.413 C 302.062,61.995 303.863,60.697 304.000,60.529 C 305.062,59.232 338.828,37.000 339.737,37.000 C 339.857,37.000 341.147,36.291 342.603,35.425 C 346.810,32.922 357.758,27.408 363.750,24.773 C 366.775,23.444 370.361,21.826 371.719,21.178 C 373.076,20.530 374.376,20.000 374.606,20.000 C 374.837,20.000 377.185,18.977 379.824,17.728 C 382.463,16.478 384.731,15.564 384.864,15.698 C 385.308,16.142 382.685,23.863 378.900,33.250 C 375.837,40.847 374.401,43.900 368.317,55.750 C 366.905,58.500 365.326,61.763 364.807,63.000 C 364.289,64.237 363.473,65.700 362.995,66.250 C 362.516,66.800 361.050,69.275 359.737,71.750 C 358.424,74.225 356.540,77.562 355.550,79.167 C 350.889,86.720 347.091,92.663 344.060,97.149 C 342.240,99.844 340.413,102.563 340.000,103.192 C 339.587,103.820 338.286,105.665 337.107,107.292 C 335.928,108.919 334.466,110.958 333.857,111.822 C 333.248,112.687 331.962,114.464 331.000,115.771 C 328.497,119.170 310.504,141.622 309.790,142.236 C 309.462,142.519 307.544,144.727 305.528,147.142 C 298.877,155.112 283.313,172.378 275.000,181.009 C 273.762,182.294 271.766,184.448 270.563,185.797 C 268.228,188.416 267.394,189.297 251.206,206.250 C 245.429,212.300 239.033,219.050 236.992,221.250 C 231.658,226.998 224.438,234.462 215.125,243.853 C 210.656,248.359 207.000,252.221 207.000,252.436 C 207.000,252.973 204.793,255.002 204.218,254.993 C 203.960,254.989 201.275,251.927 198.250,248.187 Z M 188.164,214.423 C 195.755,208.438 197.485,206.752 224.000,179.499 C 238.965,164.118 267.980,134.502 269.786,132.765 C 270.081,132.482 272.199,130.225 274.493,127.750 C 276.788,125.275 283.305,118.525 288.975,112.750 C 294.646,106.975 300.508,100.900 302.001,99.250 C 303.494,97.600 312.300,88.487 321.570,79.000 C 330.839,69.513 339.397,60.564 340.587,59.114 C 341.776,57.664 345.731,53.624 349.375,50.137 C 358.236,41.656 358.238,41.110 349.392,46.329 C 342.235,50.553 330.723,57.958 315.705,68.000 C 312.719,69.997 305.812,75.157 301.286,78.773 C 298.516,80.985 295.130,83.563 293.761,84.500 C 290.596,86.668 290.086,87.081 279.238,96.250 C 268.942,104.952 266.160,107.423 257.000,116.000 C 244.047,128.128 236.194,135.844 197.889,174.079 C 180.075,191.861 165.500,206.756 165.500,207.180 C 165.500,208.016 169.496,211.000 170.615,211.000 C 170.992,211.000 171.514,211.180 171.775,211.400 C 172.036,211.620 173.600,212.331 175.250,212.980 C 176.900,213.629 178.847,214.574 179.577,215.080 C 180.307,215.586 181.250,216.000 181.673,216.000 C 182.095,216.000 182.591,216.243 182.775,216.541 C 183.319,217.420 185.400,216.602 188.164,214.423 Z M 375.500,176.180 C 367.795,175.064 364.474,173.655 359.960,169.585 C 355.109,165.211 352.063,158.578 352.018,152.291 C 351.986,147.928 353.446,141.165 355.479,136.250 C 356.819,133.014 365.144,115.896 367.030,112.500 C 367.870,110.987 369.444,108.062 370.526,106.000 C 373.693,99.969 375.879,96.290 376.401,96.116 C 376.980,95.923 380.633,102.150 384.375,109.709 C 385.861,112.712 387.916,116.424 388.942,117.959 C 390.963,120.983 394.795,128.592 396.516,133.000 C 399.545,140.755 400.223,144.184 400.172,151.500 C 400.131,157.259 400.005,158.068 398.556,161.800 C 397.212,165.267 396.500,166.318 393.617,169.095 C 389.670,172.898 389.308,173.113 384.168,174.695 C 379.824,176.033 377.378,176.451 375.500,176.180 Z" fill="#000000" fill-rule="evenodd" /></svg>