<svg width="101" height="100" viewBox="0 0 101 100" fill="none" xmlns="http://www.w3.org/2000/svg">
<path fill-rule="evenodd" clip-rule="evenodd" d="M45.4342 99.7891C37.2572 98.8571 28.2342 95.5171 21.4732 90.9181C18.2622 88.7351 12.2532 82.8921 9.60116 79.3741C7.43116 76.4961 3.53916 69.2311 2.73516 66.5581C0.236155 58.2431 -0.601845 49.9491 0.434155 43.7981C1.44716 37.7841 2.14516 35.2351 3.91716 31.0811C6.47216 25.0881 9.94616 20.0171 14.9072 15.0401C26.1512 3.7591 39.0932 -1.0699 54.6842 0.197103C80.5012 2.2951 100.934 24.5551 100.934 50.5811C100.934 76.9731 79.6152 98.6941 52.6552 99.7701C49.6462 99.8901 46.3962 99.8991 45.4342 99.7891ZM57.9622 91.8581C63.1342 90.8681 65.9512 89.8691 70.9662 87.2431C81.9582 81.4891 88.9402 72.4341 92.4872 59.3311C93.3832 56.0191 93.3992 44.6291 92.5112 41.3311C90.1582 32.5881 86.5262 26.2081 80.4342 20.1161C71.7662 11.4471 61.9732 7.3521 49.9342 7.3601C43.0762 7.3651 37.9502 8.5391 32.2942 11.3991C23.2202 15.9891 15.5542 23.8281 11.4982 32.6671C8.33015 39.5691 7.68016 42.6381 7.70416 50.5811C7.72716 57.8871 8.47616 61.3631 11.4442 67.9251C17.0062 80.2231 28.6622 89.1421 42.9342 92.0201C46.4582 92.7311 53.8152 92.6511 57.9622 91.8581ZM40.9342 87.5511C36.7582 86.4731 32.9282 84.7121 32.9452 83.8771C32.9512 83.5771 33.3962 82.7691 33.9342 82.0811C35.1522 80.5231 35.1982 79.1421 34.0592 78.2771C32.5952 77.1661 31.6342 77.4891 30.1842 79.5811C29.4222 80.6811 28.4992 81.5811 28.1342 81.5811C27.1902 81.5811 21.1342 75.8021 19.3282 73.1771C17.6932 70.8011 17.6292 71.0071 20.5592 69.2091C22.1692 68.2211 22.3522 66.6141 20.9942 65.3851C20.1042 64.5801 19.9292 64.6041 17.7272 65.8331L15.4002 67.1321L14.3842 64.8351C13.2282 62.2211 12.1842 58.4221 11.6752 54.9791C11.3462 52.7501 11.3942 52.6101 12.6022 52.3071C13.3032 52.1311 14.0962 52.1221 14.3642 52.2881C14.6312 52.4531 15.4312 52.3671 16.1422 52.0971C17.1222 51.7241 17.4342 51.2551 17.4342 50.1551C17.4342 48.2701 16.6642 47.6851 13.9242 47.4901L11.6842 47.3311L11.8412 45.3311C12.0562 42.5931 14.3312 35.3191 15.3762 34.0281L16.2312 32.9731L18.1522 34.2771C20.4872 35.8621 20.6732 35.8721 21.6562 34.4701C22.8612 32.7491 22.6012 31.9201 20.4342 30.5811C19.3342 29.9011 18.4342 29.0791 18.4342 28.7531C18.4342 27.3201 26.9422 18.5811 28.3372 18.5811C28.5902 18.5811 29.4222 19.4811 30.1842 20.5811C31.7472 22.8371 32.1712 22.9531 33.9222 21.6071L35.1602 20.6561L34.0022 18.5961C33.3662 17.4631 32.9672 16.2151 33.1172 15.8241C33.8572 13.8981 46.7912 10.3541 47.8482 11.7881C48.0682 12.0871 48.3122 13.2311 48.3892 14.3311C48.5662 16.8281 48.7252 17.0811 50.1142 17.0811C51.7702 17.0811 52.4342 16.1341 52.4342 13.7731C52.4342 12.5761 52.6942 11.5781 53.0352 11.4641C54.5882 10.9461 62.9922 13.0511 66.3942 14.8101C68.2002 15.7441 68.2842 16.2291 66.9342 17.9451C65.6912 19.5251 65.6652 20.6831 66.8482 21.7541C68.1892 22.9661 68.7122 22.7981 70.4942 20.5811C71.3782 19.4811 72.2572 18.5811 72.4472 18.5811C73.5262 18.5811 82.4732 27.9171 82.4152 28.9821C82.4052 29.1741 81.5052 29.9481 80.4152 30.7011C78.1962 32.2361 78.0092 32.9451 79.3762 34.6341L80.3192 35.7981L82.6802 34.5831C84.9562 33.4121 85.0662 33.4021 85.7172 34.2921C87.0892 36.1671 89.7392 46.6091 89.0252 47.3241C88.8832 47.4651 87.7072 47.5811 86.4122 47.5811C83.7052 47.5811 82.7852 48.3531 83.0232 50.4261C83.1662 51.6781 83.4022 51.8461 85.1842 51.9641C89.2372 52.2341 89.5072 52.4031 89.1782 54.4711C88.4732 58.9081 86.4092 65.6131 85.3932 66.7691C85.1812 67.0101 83.9502 66.6171 82.6582 65.8941C81.3652 65.1721 80.2392 64.5811 80.1552 64.5811C80.0712 64.5811 79.5132 65.2681 78.9152 66.1081C77.8932 67.5431 77.8782 67.6901 78.6672 68.5621C79.1292 69.0721 80.1492 69.7561 80.9342 70.0811C83.5352 71.1581 83.2362 71.9201 78.2632 76.8931C75.6842 79.4721 73.2592 81.5811 72.8732 81.5811C72.4862 81.5811 71.6142 80.6811 70.9342 79.5811C69.6282 77.4671 68.3912 77.0761 66.8092 78.2771C65.6862 79.1291 65.7042 79.4021 67.0482 81.9401C67.8482 83.4501 68.0122 84.2031 67.6262 84.5891C66.9102 85.3051 60.7322 87.3771 57.0392 88.1401C53.1832 88.9361 52.4342 88.6191 52.4342 86.1921C52.4342 83.6101 51.5232 82.4511 49.6592 82.6631C48.2612 82.8221 48.1712 82.9741 47.9342 85.5811C47.6942 88.2211 47.6242 88.3351 46.1842 88.4251C45.3592 88.4761 42.9962 88.0831 40.9342 87.5511ZM67.1432 59.7781C68.3872 59.3001 68.0712 57.7861 66.4422 56.4151C65.6222 55.7241 63.1612 54.3031 60.9732 53.2571C57.2492 51.4771 56.9642 51.2271 56.4882 49.3391C56.1882 48.1461 55.2562 46.6201 54.2072 45.6031L52.4342 43.8851V35.0781C52.4342 25.7621 52.1102 24.2811 50.1512 24.6581C48.3592 25.0041 47.8172 28.0861 48.0832 36.4221L48.3252 44.0131L46.8592 45.3191C44.9692 47.0031 44.3012 48.8151 44.7002 51.1761C45.3832 55.2161 49.5472 57.5231 53.1072 55.8341L54.8772 54.9941L59.0092 57.5381C63.0102 60.0001 65.0792 60.5691 67.1432 59.7781ZM48.8582 51.3631C48.1992 49.9171 48.5242 48.8361 49.8282 48.1371C51.8552 47.0531 53.9892 50.3261 52.3342 51.9811C51.2992 53.0161 49.4622 52.6891 48.8582 51.3631Z" fill="black"/>
</svg>
