<svg xmlns="http://www.w3.org/2000/svg" viewBox="0 0 209 276" width="209" height="276"><path d="M 30.250,257.301 C 23.715,255.217 19.803,251.565 17.906,245.776 C 16.108,240.291 16.396,235.416 19.239,223.250 C 19.625,221.600 20.420,218.000 21.006,215.250 C 21.592,212.500 23.154,205.750 24.479,200.250 C 25.803,194.750 27.366,188.153 27.953,185.589 C 29.279,179.794 30.770,176.800 33.656,174.140 C 36.696,171.338 39.267,170.114 45.606,168.451 C 52.680,166.595 57.980,164.130 59.598,161.943 C 61.362,159.561 62.077,156.395 61.902,151.750 L 61.750,147.750 L 58.592,147.248 C 54.838,146.652 51.912,144.513 50.452,141.297 C 49.385,138.949 49.196,133.871 50.058,130.750 C 50.791,128.098 53.757,125.306 56.602,124.589 C 58.094,124.214 67.217,124.037 84.534,124.049 C 98.678,124.058 110.522,124.051 110.855,124.033 C 111.187,124.015 112.231,122.462 113.174,120.583 C 115.391,116.166 118.700,110.881 126.261,99.684 C 135.210,86.431 143.407,75.874 156.910,60.214 C 164.938,50.903 166.421,48.999 165.643,49.001 C 164.748,49.003 144.692,69.829 138.679,77.000 C 131.340,85.752 119.162,101.906 115.052,108.341 C 114.118,109.804 113.139,111.000 112.876,111.000 C 111.525,111.000 114.424,97.455 117.942,87.328 C 125.852,64.559 148.520,39.493 176.500,22.576 C 184.639,17.656 189.086,15.386 189.594,15.894 C 190.420,16.720 190.906,24.060 190.457,28.928 C 189.986,34.038 188.918,40.514 188.033,43.625 C 187.740,44.656 187.301,46.231 187.057,47.125 C 186.813,48.019 185.600,50.888 184.361,53.500 C 181.414,59.715 178.421,62.562 169.931,67.222 C 166.366,69.179 167.678,69.387 173.412,67.775 C 175.905,67.074 178.071,66.500 178.223,66.500 C 178.870,66.500 178.332,67.721 175.430,72.838 C 164.215,92.612 150.307,105.574 132.750,112.616 C 125.003,115.723 123.557,116.490 122.331,118.143 C 120.868,120.114 119.976,122.653 120.468,123.448 C 120.732,123.876 124.714,124.080 134.792,124.184 C 144.474,124.283 149.209,124.517 150.248,124.948 C 154.935,126.891 157.144,130.517 157.115,136.222 C 157.088,141.414 155.745,144.226 152.632,145.605 C 151.322,146.186 149.125,146.910 147.750,147.215 L 145.250,147.770 L 145.087,151.260 C 144.825,156.848 145.692,159.739 148.456,162.504 C 150.280,164.328 151.583,165.102 154.278,165.963 C 156.188,166.573 158.200,167.266 158.750,167.503 C 159.300,167.740 161.179,168.422 162.926,169.018 C 168.135,170.795 170.198,171.858 172.686,174.048 C 175.160,176.225 177.373,179.950 178.082,183.125 C 178.312,184.156 178.711,185.844 178.969,186.875 C 179.423,188.692 180.867,195.334 182.256,202.000 C 182.628,203.787 183.749,208.625 184.746,212.750 C 185.744,216.875 186.881,221.713 187.274,223.500 C 187.667,225.287 188.441,228.764 188.994,231.225 C 190.186,236.525 190.278,241.911 189.229,244.921 C 187.182,250.799 184.728,253.637 179.500,256.173 L 176.250,257.750 L 104.250,257.844 C 47.051,257.919 31.839,257.807 30.250,257.301 Z" fill="#000000" fill-rule="evenodd" /></svg>