<svg xmlns="http://www.w3.org/2000/svg" viewBox="0 0 112 113" width="112" height="113"><path d="M 49.250,100.442 C 36.481,98.164 27.017,92.522 20.046,83.032 C 15.130,76.341 12.590,69.839 11.487,61.125 C 9.410,44.712 17.145,27.885 31.000,18.681 C 37.347,14.464 40.346,13.292 48.750,11.740 C 62.192,9.258 76.473,13.955 86.759,24.241 C 97.215,34.698 101.664,48.494 99.276,63.058 C 98.520,67.669 96.641,73.767 94.930,77.163 C 91.179,84.607 83.196,92.403 75.216,96.413 C 67.392,100.346 57.401,101.897 49.250,100.442 Z M 60.500,92.010 C 65.863,91.233 74.543,87.975 75.582,86.349 C 75.765,86.063 74.977,84.501 73.832,82.877 L 71.750,79.925 L 71.760,64.462 C 71.765,55.958 71.614,49.000 71.424,49.000 C 71.234,49.000 69.538,50.406 67.654,52.125 C 58.244,60.712 56.127,62.266 54.532,61.760 C 54.020,61.598 50.598,58.777 46.926,55.492 C 43.254,52.206 39.969,49.514 39.625,49.509 C 39.138,49.502 39.000,52.888 39.000,64.798 L 39.000,80.095 L 37.500,82.828 C 36.675,84.332 36.000,85.864 36.000,86.233 C 36.000,86.602 37.406,87.594 39.125,88.436 C 46.357,91.979 53.018,93.093 60.500,92.010 Z M 30.005,78.875 C 30.945,77.334 30.996,76.312 30.998,59.033 C 31.000,41.809 30.945,40.703 29.996,38.741 C 29.443,37.600 28.429,36.138 27.742,35.492 C 26.518,34.342 26.478,34.338 25.760,35.284 C 24.936,36.370 22.443,41.465 21.617,43.750 C 19.765,48.879 19.228,58.080 20.465,63.500 C 21.244,66.911 22.710,71.118 24.036,73.750 C 25.113,75.887 28.343,80.500 28.762,80.500 C 28.901,80.500 29.461,79.769 30.005,78.875 Z M 84.889,77.125 C 92.087,66.383 93.371,53.763 88.513,41.500 C 87.307,38.455 84.964,34.502 84.364,34.501 C 84.152,34.500 83.069,35.906 81.958,37.625 L 79.937,40.750 L 80.093,59.250 C 80.254,78.212 80.440,80.000 82.249,80.000 C 82.642,80.000 83.830,78.706 84.889,77.125 Z M 56.083,51.625 C 56.175,51.419 58.388,49.352 61.000,47.032 C 69.288,39.672 73.022,35.851 75.545,32.148 C 76.895,30.166 78.000,28.311 78.000,28.026 C 78.000,27.313 74.389,24.757 71.300,23.284 C 63.065,19.357 53.867,18.576 45.250,21.074 C 41.849,22.060 33.854,26.022 33.231,27.031 C 32.686,27.913 38.337,36.649 41.345,39.575 C 45.056,43.184 55.145,51.983 55.583,51.993 C 55.767,51.997 55.992,51.831 56.083,51.625 Z" fill="#000000" fill-rule="evenodd" /></svg>