<svg xmlns="http://www.w3.org/2000/svg" viewBox="0 0 273 294" width="273" height="294"><path d="M 112.500,280.422 C 94.500,278.639 83.236,276.809 65.500,272.783 C 57.522,270.973 40.207,265.989 36.750,264.508 C 36.200,264.273 34.062,263.467 32.000,262.717 C 26.409,260.683 19.473,257.139 17.564,255.339 C 16.637,254.465 15.231,252.400 14.440,250.750 C 13.223,248.213 13.001,247.133 13.004,243.750 C 13.012,234.201 16.072,222.491 21.166,212.512 C 28.055,199.016 35.184,191.540 46.750,185.685 C 49.500,184.293 52.987,182.692 54.500,182.127 C 56.013,181.562 59.050,180.422 61.250,179.595 C 63.450,178.767 67.838,177.263 71.000,176.252 C 74.162,175.242 77.425,174.116 78.250,173.750 C 80.269,172.856 88.128,170.294 91.360,169.478 L 93.970,168.819 L 97.110,171.784 C 98.837,173.415 100.326,174.921 100.419,175.131 C 100.761,175.905 109.832,181.924 112.250,182.982 C 113.625,183.584 115.712,184.509 116.888,185.038 C 118.064,185.567 119.570,186.000 120.234,186.000 C 120.898,186.000 121.564,186.199 121.714,186.442 C 122.320,187.422 129.000,188.244 136.000,188.202 C 144.798,188.149 150.712,186.791 157.750,183.207 C 163.928,180.062 166.426,178.323 172.372,173.031 L 177.494,168.471 L 180.622,169.256 C 182.343,169.687 184.425,170.353 185.250,170.735 C 188.353,172.173 193.399,173.963 197.750,175.171 C 209.571,178.451 223.572,184.310 231.075,189.115 C 237.725,193.373 244.924,201.475 249.281,209.603 C 255.047,220.359 259.441,238.838 258.266,247.384 C 257.280,254.550 250.028,259.511 231.250,265.865 C 215.144,271.315 202.017,274.355 177.750,278.255 C 174.188,278.827 167.713,279.582 160.500,280.265 C 151.980,281.072 120.116,281.176 112.500,280.422 Z M 129.750,175.197 C 128.100,174.801 125.788,174.263 124.613,174.002 C 122.117,173.446 116.015,170.837 113.500,169.250 C 112.537,168.643 111.266,167.992 110.673,167.805 C 109.484,167.428 99.500,157.867 99.500,157.105 C 99.500,156.842 98.351,155.193 96.947,153.439 C 94.393,150.250 88.497,138.813 86.548,133.268 C 85.935,131.521 84.611,129.358 83.147,127.706 C 79.089,123.130 75.554,118.368 74.272,115.750 C 70.472,107.987 68.993,98.105 70.760,92.280 C 71.645,89.364 72.601,87.809 74.669,85.919 L 76.190,84.530 L 75.569,81.390 C 74.804,77.516 74.745,63.237 75.477,58.928 C 76.586,52.397 78.395,47.446 81.217,43.219 C 83.132,40.351 87.973,35.555 90.018,34.501 C 90.990,33.999 93.015,32.281 94.518,30.681 C 106.075,18.381 111.169,15.495 125.750,12.985 C 137.046,11.041 149.044,12.245 158.250,16.249 C 165.569,19.431 167.633,20.720 170.677,24.008 C 172.891,26.399 173.876,27.077 175.832,27.555 C 179.128,28.361 180.446,29.082 183.958,32.005 C 188.775,36.014 192.021,41.541 193.982,49.072 C 195.869,56.324 196.438,71.717 195.191,81.818 C 194.886,84.290 194.948,84.467 196.850,86.568 C 203.229,93.611 202.714,106.783 195.570,119.336 C 195.074,120.208 193.111,122.640 191.209,124.740 C 187.715,128.595 186.059,131.087 186.021,132.548 C 186.009,132.986 185.550,133.752 185.000,134.250 C 184.450,134.748 184.000,135.430 184.000,135.765 C 184.000,136.543 181.899,141.102 180.249,143.907 C 174.615,153.479 167.994,161.672 162.167,166.281 C 159.592,168.319 152.486,172.421 150.417,173.064 C 140.755,176.070 135.607,176.601 129.750,175.197 Z" fill="#000000" fill-rule="evenodd" /></svg>