<svg xmlns="http://www.w3.org/2000/svg" viewBox="0 0 335 273" width="335" height="273"><path d="M 159.500,260.468 C 149.308,260.067 137.543,258.624 131.723,257.061 C 130.638,256.770 127.445,256.078 124.627,255.524 C 119.187,254.453 116.348,253.470 114.893,252.153 C 114.081,251.419 114.001,250.226 114.008,239.048 C 114.016,225.674 114.552,221.566 117.243,214.250 C 119.512,208.078 125.093,200.519 130.231,196.656 C 133.846,193.938 141.592,190.000 143.322,190.000 C 144.008,190.000 145.510,190.632 146.660,191.404 C 148.936,192.932 153.180,194.857 157.500,196.319 C 159.664,197.052 161.741,197.250 167.250,197.250 C 173.593,197.250 174.628,197.120 178.277,195.867 C 180.491,195.106 184.091,193.464 186.277,192.217 C 188.462,190.971 190.588,190.052 191.000,190.176 C 205.322,194.459 215.221,205.492 218.924,221.300 C 219.767,224.898 220.030,228.192 220.301,238.500 C 220.694,253.432 221.208,252.084 214.250,254.370 C 199.005,259.378 181.461,261.332 159.500,260.468 Z M 50.250,241.429 C 36.885,240.472 20.925,237.462 14.643,234.712 C 12.747,233.882 11.951,233.227 11.720,232.307 C 11.545,231.612 11.503,225.127 11.626,217.896 C 11.874,203.367 12.237,201.217 15.700,193.784 C 17.504,189.912 22.510,183.011 25.424,180.378 C 27.885,178.155 36.140,173.295 39.166,172.288 L 41.582,171.484 L 44.666,173.123 C 52.211,177.132 56.591,178.250 64.750,178.250 C 73.063,178.250 78.294,176.819 85.000,172.708 C 87.730,171.035 87.766,171.028 89.922,171.775 C 94.565,173.383 99.637,176.378 103.431,179.750 C 108.425,184.188 116.483,197.693 115.537,200.039 C 115.379,200.430 114.299,202.330 113.136,204.261 C 110.668,208.359 107.238,217.623 106.524,222.117 C 106.250,223.840 105.989,227.780 105.943,230.872 C 105.888,234.564 105.652,236.667 105.255,236.996 C 104.923,237.272 103.474,237.720 102.037,237.993 C 100.599,238.266 99.255,238.593 99.049,238.720 C 98.155,239.272 83.549,241.028 76.000,241.490 C 66.596,242.066 58.901,242.048 50.250,241.429 Z M 256.000,241.485 C 250.118,240.920 243.184,240.041 240.500,239.521 C 239.262,239.281 236.562,238.805 234.500,238.462 C 232.438,238.120 230.131,237.532 229.375,237.157 L 228.000,236.474 L 228.000,230.777 C 228.000,220.984 225.258,210.736 220.769,203.750 C 219.709,202.100 218.839,200.165 218.837,199.450 C 218.832,197.692 222.884,189.831 226.015,185.526 C 229.624,180.565 233.477,177.326 239.170,174.469 C 244.906,171.591 246.488,171.433 249.853,173.404 C 261.911,180.466 275.227,180.450 288.627,173.357 L 292.504,171.305 L 295.788,172.402 C 305.566,175.666 313.925,183.693 318.999,194.691 C 322.475,202.224 322.750,204.040 322.750,219.500 L 322.750,233.250 L 319.933,234.616 C 314.256,237.370 298.694,240.499 286.000,241.439 C 278.930,241.963 261.255,241.990 256.000,241.485 Z M 161.500,189.045 C 152.298,187.454 142.922,180.220 138.665,171.429 C 136.982,167.954 136.605,166.663 135.713,161.302 C 134.884,156.324 135.299,151.281 136.948,146.281 C 139.252,139.296 145.689,131.873 152.068,128.844 C 156.321,126.824 163.169,124.998 166.470,125.004 C 173.845,125.016 182.338,128.112 188.327,132.971 C 190.467,134.707 194.072,139.214 195.730,142.225 C 199.028,148.217 200.100,159.666 197.967,166.123 C 194.278,177.295 186.618,185.062 176.122,188.276 C 173.300,189.140 164.671,189.594 161.500,189.045 Z M 55.500,169.063 C 46.646,166.752 38.381,159.429 35.114,151.000 C 33.208,146.083 32.803,143.839 32.813,138.250 C 32.821,134.027 33.080,131.907 33.928,129.120 C 35.845,122.816 39.756,116.994 44.485,113.403 C 57.714,103.357 75.644,104.428 87.024,115.944 C 91.128,120.097 94.289,125.680 95.548,131.000 C 96.598,135.438 96.332,144.131 95.028,148.000 C 93.412,152.793 90.361,157.617 86.635,161.271 C 80.329,167.455 73.690,170.031 64.260,169.956 C 60.825,169.929 57.526,169.592 55.500,169.063 Z M 259.879,168.801 C 252.307,166.560 244.112,159.680 240.832,152.811 C 238.216,147.331 237.750,145.131 237.750,138.250 C 237.750,132.341 237.880,131.397 239.177,127.873 C 241.802,120.736 246.011,115.483 252.500,111.243 C 257.193,108.177 264.238,106.028 269.661,106.009 C 272.909,105.997 280.064,107.781 283.768,109.527 C 291.414,113.130 298.285,121.865 300.746,131.111 C 301.966,135.695 301.576,144.401 299.955,148.750 C 298.546,152.528 295.449,157.671 293.075,160.174 C 290.738,162.638 286.209,165.738 282.587,167.354 C 276.103,170.248 266.776,170.842 259.879,168.801 Z M 220.250,121.340 C 219.150,120.709 214.537,117.691 210.000,114.633 C 205.093,111.325 200.737,108.768 199.250,108.321 C 197.520,107.801 193.361,107.481 185.750,107.284 C 171.535,106.916 167.776,105.917 160.853,100.672 C 158.946,99.227 157.146,97.965 156.854,97.868 C 156.562,97.771 156.470,97.452 156.651,97.161 C 156.831,96.869 159.290,96.476 162.114,96.288 C 177.074,95.289 186.764,90.411 194.971,79.750 C 197.315,76.705 200.573,70.556 201.462,67.500 C 201.822,66.263 202.299,64.688 202.523,64.000 C 203.507,60.980 204.058,55.308 203.952,49.281 C 203.819,41.733 203.495,42.139 209.709,42.050 C 224.648,41.835 236.557,49.898 240.994,63.233 C 243.096,69.548 243.068,79.339 240.927,86.500 C 239.056,92.760 235.692,96.914 228.876,101.380 L 224.000,104.575 L 224.000,113.537 C 224.000,123.658 224.063,123.528 220.250,121.340 Z M 110.685,98.425 L 110.750,88.351 L 106.695,86.296 C 97.754,81.766 91.247,73.960 87.931,63.788 C 86.932,60.723 86.776,59.214 86.764,52.500 C 86.751,45.302 86.849,44.461 88.146,40.686 C 92.349,28.446 102.891,17.985 113.514,15.512 C 115.019,15.162 116.902,14.678 117.700,14.438 C 119.935,13.763 164.998,13.883 167.868,14.572 C 177.404,16.860 181.100,18.898 187.319,25.299 C 194.979,33.182 197.936,41.964 197.323,55.000 C 197.030,61.240 195.496,66.649 192.374,72.459 C 189.710,77.417 182.548,83.895 176.932,86.428 C 170.148,89.487 166.692,90.028 152.000,90.335 C 136.939,90.648 138.567,90.127 126.500,98.500 C 117.149,104.989 111.741,108.500 111.098,108.500 C 110.809,108.500 110.646,104.532 110.685,98.425 Z M 120.067,56.686 C 122.054,54.782 122.845,52.040 121.997,49.994 C 121.208,48.088 118.265,46.000 116.368,46.000 C 114.269,46.000 111.687,47.250 110.711,48.739 C 109.477,50.622 109.497,54.111 110.750,55.519 C 113.696,58.831 117.350,59.289 120.067,56.686 Z M 144.485,57.860 C 146.291,56.947 148.000,54.137 148.000,52.082 C 148.000,50.049 146.329,47.310 144.611,46.527 C 143.974,46.237 142.560,46.000 141.469,46.000 C 139.907,46.000 139.088,46.364 137.618,47.712 C 135.897,49.289 135.750,49.638 135.750,52.159 C 135.750,55.208 136.644,56.648 139.250,57.799 C 141.149,58.637 142.909,58.658 144.485,57.860 Z M 170.817,57.685 C 173.158,56.574 174.003,55.193 173.982,52.514 C 173.951,48.496 171.519,46.009 167.618,46.003 C 165.884,46.001 165.136,46.320 163.618,47.712 C 161.880,49.304 161.750,49.622 161.750,52.266 C 161.750,54.889 161.882,55.220 163.451,56.530 C 165.919,58.590 168.166,58.943 170.817,57.685 Z" fill="#000000" fill-rule="evenodd" /></svg>