<svg xmlns="http://www.w3.org/2000/svg" viewBox="0 0 431 406" width="431" height="406"><path d="M 67.102,387.203 C 60.950,384.180 54.062,371.872 51.460,359.250 C 51.120,357.600 50.691,356.075 50.506,355.860 C 50.322,355.646 47.944,355.829 45.222,356.267 C 36.222,357.715 28.011,355.638 23.299,350.721 C 20.536,347.837 19.503,345.727 19.142,342.234 C 18.819,339.102 19.404,337.315 21.882,333.870 C 23.921,331.033 28.957,327.902 32.960,326.982 C 36.282,326.219 44.387,326.622 47.535,327.706 C 48.746,328.123 49.911,328.289 50.126,328.074 C 50.341,327.859 51.053,325.786 51.710,323.467 C 55.243,310.987 60.221,301.552 65.329,297.656 C 66.882,296.471 67.650,296.250 70.211,296.250 C 72.881,296.250 73.538,296.459 75.625,297.971 C 76.931,298.918 78.000,300.055 78.000,300.498 C 78.000,300.942 77.371,302.305 76.603,303.527 C 74.701,306.553 73.332,309.589 71.994,313.750 C 71.375,315.675 70.699,317.700 70.491,318.250 C 70.044,319.436 69.200,322.468 68.544,325.250 C 66.784,332.709 66.626,348.841 68.239,356.381 C 69.974,364.490 71.241,368.276 74.974,376.500 C 76.410,379.663 77.698,382.622 77.837,383.076 C 78.147,384.085 73.214,387.900 71.131,388.263 C 70.253,388.416 68.786,388.030 67.102,387.203 Z M 359.000,386.351 C 355.256,383.546 355.102,383.219 356.430,380.910 C 358.792,376.807 362.895,365.710 364.070,360.250 C 365.580,353.226 365.894,350.022 365.956,341.011 C 366.034,329.670 365.528,326.129 362.546,317.116 C 360.270,310.237 359.099,307.488 356.965,304.020 C 355.156,301.080 355.146,300.518 356.875,298.901 C 359.956,296.018 364.872,295.060 367.514,296.827 C 370.833,299.046 374.059,303.174 376.950,308.901 C 378.329,311.634 381.782,321.575 382.888,326.000 C 383.388,328.001 383.090,327.965 391.000,326.995 C 401.550,325.701 407.866,327.901 412.102,334.343 C 414.225,337.570 414.767,339.600 414.324,342.663 C 413.738,346.709 412.962,348.418 410.615,350.824 C 405.774,355.789 398.797,357.511 389.022,356.155 C 386.397,355.791 383.997,355.589 383.688,355.707 C 383.378,355.824 382.998,356.557 382.843,357.335 C 382.467,359.223 381.774,362.056 380.724,366.000 C 379.738,369.701 375.070,379.101 372.484,382.591 C 370.506,385.261 366.549,387.523 363.310,387.837 C 361.578,388.004 360.891,387.767 359.000,386.351 Z M 90.097,378.125 C 88.653,376.080 85.489,369.624 84.444,366.586 C 81.853,359.059 79.774,345.564 80.270,339.500 C 80.856,332.353 82.309,324.569 83.911,320.000 C 86.515,312.572 87.086,311.087 88.127,309.030 C 88.745,307.809 89.925,306.095 90.750,305.221 L 92.250,303.632 L 99.000,304.545 C 102.713,305.047 109.906,305.822 114.985,306.268 C 120.065,306.713 124.343,307.153 124.492,307.245 C 124.641,307.337 127.910,307.568 131.756,307.758 C 135.603,307.948 138.873,308.178 139.022,308.268 C 139.172,308.358 143.447,308.677 148.522,308.977 C 153.598,309.277 159.100,309.622 160.750,309.744 C 162.400,309.866 168.137,310.111 173.500,310.288 C 178.863,310.466 183.404,310.703 183.593,310.815 C 184.351,311.267 234.481,311.376 244.750,310.948 C 272.505,309.792 300.832,308.113 311.000,307.019 C 313.613,306.738 317.438,306.387 319.500,306.239 C 321.562,306.091 327.364,305.505 332.392,304.938 C 337.420,304.370 341.844,304.025 342.223,304.170 C 343.180,304.538 348.131,314.909 349.660,319.750 C 353.582,332.167 353.944,346.544 350.672,360.000 C 348.765,367.844 344.433,378.195 342.809,378.785 C 341.566,379.238 337.514,379.307 333.500,378.945 C 328.342,378.478 315.493,377.204 309.000,376.515 C 300.794,375.645 298.953,375.475 289.750,374.745 C 260.488,372.422 198.735,371.937 165.250,373.767 C 142.833,374.992 121.972,376.703 101.750,378.976 C 99.275,379.255 95.859,379.486 94.159,379.491 C 91.351,379.499 90.979,379.374 90.097,378.125 Z M 210.407,297.752 C 210.321,297.671 203.162,297.464 194.500,297.292 C 185.838,297.119 177.400,296.871 175.750,296.739 C 174.100,296.608 168.025,296.270 162.250,295.989 C 151.785,295.479 137.918,294.497 127.000,293.491 C 106.987,291.647 103.369,291.265 100.625,290.709 C 99.248,290.430 99.208,289.538 100.239,282.091 C 102.683,264.442 104.938,241.136 105.756,225.073 C 106.532,209.856 105.905,168.593 104.745,158.500 C 104.603,157.262 104.250,153.213 103.960,149.500 C 103.670,145.787 103.241,140.500 103.005,137.750 C 102.466,131.448 100.091,113.000 99.690,112.000 C 99.525,111.588 99.203,109.489 98.975,107.338 C 98.747,105.186 98.317,103.132 98.020,102.774 C 97.722,102.415 96.287,102.023 94.830,101.902 C 91.117,101.594 89.841,100.466 87.308,95.250 C 83.037,86.455 81.234,79.390 80.226,67.500 C 79.901,63.671 80.648,53.314 81.438,50.699 C 81.678,49.902 82.145,48.013 82.475,46.500 C 83.137,43.464 84.594,39.325 86.084,36.250 C 87.384,33.566 90.941,27.362 91.503,26.798 C 92.143,26.156 91.894,26.140 110.250,28.017 C 120.041,29.017 125.414,29.519 129.000,29.766 C 132.267,29.991 137.825,30.433 148.000,31.275 C 149.512,31.400 153.000,31.615 155.750,31.753 C 168.190,32.375 171.181,32.515 177.750,32.781 C 181.600,32.937 185.083,33.175 185.491,33.311 C 185.898,33.447 196.811,33.627 209.741,33.711 C 233.262,33.864 247.706,33.557 266.000,32.517 C 271.363,32.212 277.775,31.850 280.250,31.713 C 282.725,31.576 287.788,31.228 291.500,30.940 C 295.212,30.651 301.062,30.229 304.500,30.002 C 311.716,29.525 324.235,28.372 334.104,27.276 C 337.874,26.858 341.294,26.644 341.705,26.802 C 343.398,27.451 348.131,36.551 350.001,42.750 C 350.581,44.675 351.391,47.712 351.801,49.500 C 352.842,54.048 353.300,68.661 352.542,73.178 C 350.609,84.703 348.133,92.014 343.938,98.585 C 342.502,100.833 342.333,100.935 339.355,101.335 L 336.263,101.750 L 335.140,108.000 C 332.187,124.419 330.064,143.185 328.519,166.500 C 327.697,178.921 327.827,218.540 328.735,232.000 C 330.269,254.747 331.836,269.826 334.075,283.395 C 334.820,287.910 334.943,289.716 334.540,290.202 C 333.871,291.008 328.849,291.834 320.500,292.512 C 317.062,292.792 313.688,293.127 313.000,293.257 C 312.312,293.387 308.375,293.730 304.250,294.020 C 300.125,294.309 295.625,294.633 294.250,294.738 C 283.468,295.568 259.343,296.811 245.250,297.263 C 234.403,297.610 210.614,297.944 210.407,297.752 Z M 236.828,252.452 C 238.895,251.174 239.971,249.208 240.306,246.098 C 240.600,243.369 239.610,241.397 236.918,239.346 L 235.250,238.076 L 214.250,237.992 C 202.700,237.947 183.220,237.930 170.961,237.955 L 148.671,238.000 L 146.386,239.514 C 144.043,241.066 142.500,243.480 142.500,245.595 C 142.500,247.914 144.613,251.081 146.992,252.326 L 149.235,253.500 L 192.183,253.500 C 234.919,253.500 235.140,253.495 236.828,252.452 Z M 285.548,211.528 C 286.865,211.482 289.756,208.287 290.387,206.179 C 291.572,202.226 288.986,197.903 284.662,196.608 C 283.178,196.163 266.001,196.012 216.160,196.004 C 144.546,195.992 147.896,195.874 145.094,198.509 C 142.959,200.517 142.336,204.279 143.705,206.900 C 144.592,208.596 146.909,210.817 148.345,211.346 C 149.121,211.632 277.652,211.802 285.548,211.528 Z M 284.486,170.456 C 287.716,169.764 290.274,167.466 290.772,164.809 C 291.512,160.863 288.768,156.700 284.633,155.497 C 283.298,155.109 263.327,154.993 216.000,155.100 C 151.705,155.244 149.180,155.285 147.347,156.195 C 143.818,157.948 141.888,161.815 143.031,164.840 C 143.788,166.843 145.921,168.974 148.250,170.052 C 150.164,170.938 153.071,170.979 216.100,170.989 C 261.684,170.997 282.731,170.833 284.486,170.456 Z M 284.896,129.357 C 291.736,127.532 293.056,119.900 287.329,115.295 L 285.407,113.750 L 216.787,113.750 L 148.166,113.750 L 146.208,115.110 C 143.716,116.840 143.156,117.773 142.792,120.799 C 142.256,125.249 145.194,128.616 150.365,129.477 C 151.677,129.696 181.971,129.894 217.686,129.919 C 267.137,129.953 283.164,129.819 284.896,129.357 Z M 67.606,109.436 C 63.083,108.131 55.407,96.331 53.010,87.000 C 50.912,78.830 50.683,78.238 49.678,78.393 C 44.066,79.256 40.065,79.538 36.614,79.315 C 33.232,79.096 31.930,78.755 29.467,77.442 C 25.569,75.365 22.237,72.408 20.871,69.814 C 19.259,66.754 19.462,61.089 21.302,57.797 C 22.667,55.354 27.614,51.001 29.025,51.000 C 29.451,51.000 30.014,50.813 30.275,50.584 C 32.006,49.069 41.424,48.458 46.444,49.535 C 50.193,50.339 50.530,49.979 52.160,43.421 C 54.755,32.983 61.881,20.543 66.330,18.684 C 68.451,17.798 72.184,17.809 73.900,18.705 C 74.642,19.093 75.901,20.095 76.696,20.931 C 78.060,22.366 78.104,22.545 77.483,24.101 C 77.121,25.008 76.406,26.359 75.894,27.103 C 74.773,28.733 71.664,35.469 70.750,38.250 C 68.461,45.214 66.994,55.541 67.027,64.456 C 67.080,78.463 70.111,89.825 76.703,100.721 C 77.691,102.354 78.500,104.180 78.500,104.778 C 78.500,106.502 76.700,108.338 74.162,109.203 C 71.565,110.087 70.052,110.141 67.606,109.436 Z M 358.388,108.420 C 356.813,107.566 355.387,106.430 355.217,105.897 C 354.861,104.775 355.702,102.505 357.400,100.000 C 360.713,95.114 363.644,86.373 365.279,76.500 C 366.242,70.685 366.226,55.467 365.251,50.250 C 363.439,40.549 362.861,38.295 361.145,34.250 C 359.419,30.183 358.645,28.603 357.224,26.250 C 356.000,24.222 355.690,22.263 356.414,21.123 C 356.633,20.778 357.573,19.934 358.503,19.248 C 359.842,18.260 360.773,18.005 362.972,18.023 C 367.960,18.063 370.548,20.155 375.226,27.930 C 379.242,34.604 380.459,37.810 382.185,46.261 C 383.069,50.585 382.936,50.493 387.119,49.680 C 391.613,48.806 398.430,48.712 401.750,49.479 C 406.551,50.588 410.791,53.846 413.167,58.250 C 414.029,59.850 414.245,61.100 414.246,64.500 C 414.248,69.160 413.823,70.138 410.047,74.166 C 406.241,78.226 398.709,80.164 391.250,79.001 C 389.325,78.701 386.962,78.333 386.000,78.183 C 384.439,77.940 384.151,78.079 383.333,79.479 C 382.828,80.341 381.781,83.230 381.005,85.898 C 378.568,94.277 377.351,97.065 373.866,102.250 C 368.669,109.980 364.400,111.682 358.388,108.420 Z" fill="#000000" fill-rule="evenodd" /></svg>